<?xml version="1.0" encoding="utf-8"?>
<!-- Generator: Adobe Illustrator 18.0.0, SVG Export Plug-In . SVG Version: 6.00 Build 0)  -->
<!DOCTYPE svg PUBLIC "-//W3C//DTD SVG 1.1//EN" "http://www.w3.org/Graphics/SVG/1.1/DTD/svg11.dtd">
<svg version="1.1" id="Layer_1" xmlns="http://www.w3.org/2000/svg" xmlns:xlink="http://www.w3.org/1999/xlink" x="0px" y="0px"
	 viewBox="451 257 57 43" enable-background="new 451 257 57 43" xml:space="preserve">
<g>
	<path fill="#68ABE1" d="M497.4,288c-0.4-1.7-2-3-3.9-3s-3.4,1.3-3.9,3h-4.1v-18h10l6,9v9H497.4z M494.5,273h-6v6h10L494.5,273z"/>
	<path fill="#4E5252" d="M500.5,289h-2c0,2.8-2.2,5-5,5s-5-2.2-5-5h-18c0,2.8-2.2,5-5,5s-5-2.2-5-5h-3v-26h29v7h10l5,8v11H500.5z
		 M465.5,293c2.1,0,4-1.9,4-4s-1.9-4-4-4s-4,1.9-4,4S463.4,293,465.5,293z M485.5,270v-6h-27.1l0.1,16h2v1h-2v7h2.1
		c0.5-2.3,2.5-4,4.9-4s4.4,1.7,4.9,4h15.1V270z M493.5,293c2.1,0,4-1.9,4-4s-1.9-4-4-4s-4,1.9-4,4S491.4,293,493.5,293z M500.5,282
		h-1v-1h1v-2l-5-8h-9v17h2.1c0.5-2.3,2.5-4,4.9-4s4.4,1.7,4.9,4h2.1V282z M482.5,281h-10v-1h10V281z M482.5,284h-6v-1h6V284z"/>
	<path fill="#68ABE1" d="M493.5,291c-1.1,0-2-0.9-2-2s0.9-2,2-2s2,0.9,2,2S494.6,291,493.5,291z M465.5,291c-1.1,0-2-0.9-2-2
		s0.9-2,2-2s2,0.9,2,2S466.6,291,465.5,291z"/>
	<path fill="#E95F58" d="M460.5,266v4h6v-2l5,4l-5,4v-2h-6v3h21v-11H460.5z"/>
</g>
</svg>
