<?xml version="1.0" encoding="utf-8"?>
<!-- Generator: Adobe Illustrator 18.0.0, SVG Export Plug-In . SVG Version: 6.00 Build 0)  -->
<!DOCTYPE svg PUBLIC "-//W3C//DTD SVG 1.1//EN" "http://www.w3.org/Graphics/SVG/1.1/DTD/svg11.dtd">
<svg version="1.1" id="Layer_1" xmlns="http://www.w3.org/2000/svg" xmlns:xlink="http://www.w3.org/1999/xlink" x="0px" y="0px"
	 viewBox="0 0 841.9 215" enable-background="new 0 0 841.9 215" xml:space="preserve">
<g>
	<g>
		<g>
			<polygon fill="#E85F58" points="410.4,130.9 330.1,130.9 330.1,159.6 396.2,159.6 			"/>
			<polygon fill="#E85F58" points="410.2,130.9 490.8,130.9 490.8,159.6 424.7,159.6 			"/>
			<path fill="#FFFFFF" d="M353.7,127.1c0-7.8,6.3-14.2,14.2-14.2c7.8,0,14.2,6.3,14.2,14.2c0-7.8,6.3-14.2,14.2-14.2
				c7.8,0,14.2,6.3,14.2,14.2c0-7.8,6.3-14.2,14.2-14.2c7.8,0,14.2,6.3,14.2,14.2c0-7.8,6.3-14.2,14.2-14.2
				c7.8,0,14.2,6.3,14.2,14.2c0-7.8,6.3-14.2,14.2-14.2c0,0-70.8-28.3-70.8-55.1c0,26.8-70.8,55.1-70.8,55.1
				C347.4,112.9,353.7,119.3,353.7,127.1z"/>
			
				<path fill="none" stroke="#5AB4E0" stroke-width="2.099" stroke-linecap="round" stroke-linejoin="round" stroke-miterlimit="10" d="
				M126,130.9c0,0,114,27.7,166.5-70.3"/>
			
				<path fill="none" stroke="#13658B" stroke-width="3.1485" stroke-linecap="round" stroke-linejoin="round" stroke-miterlimit="10" d="
				M339.5,112.9c-7.8,0-14.2,6.3-14.2,14.2v32.5h28.3v-32.5C353.7,119.3,347.4,112.9,339.5,112.9z"/>
			
				<path fill="none" stroke="#13658B" stroke-width="3.1485" stroke-linecap="round" stroke-linejoin="round" stroke-miterlimit="10" d="
				M367.9,112.9c-7.8,0-14.2,6.3-14.2,14.2v32.5H382v-32.5C382,119.3,375.7,112.9,367.9,112.9z"/>
			
				<path fill="none" stroke="#13658B" stroke-width="3.1485" stroke-linecap="round" stroke-linejoin="round" stroke-miterlimit="10" d="
				M396.2,112.9c-7.8,0-14.2,6.3-14.2,14.2v32.5h28.3v-32.5C410.4,119.3,404,112.9,396.2,112.9z"/>
			
				<path fill="none" stroke="#13658B" stroke-width="3.1485" stroke-linecap="round" stroke-linejoin="round" stroke-miterlimit="10" d="
				M424.5,112.9c-7.8,0-14.2,6.3-14.2,14.2v32.5h28.3v-32.5C438.7,119.3,432.4,112.9,424.5,112.9z"/>
			
				<path fill="none" stroke="#13658B" stroke-width="3.1485" stroke-linecap="round" stroke-linejoin="round" stroke-miterlimit="10" d="
				M452.9,112.9c-7.8,0-14.2,6.3-14.2,14.2v32.5H467v-32.5C467,119.3,460.7,112.9,452.9,112.9z"/>
			
				<path fill="none" stroke="#13658B" stroke-width="3.1485" stroke-linecap="round" stroke-linejoin="round" stroke-miterlimit="10" d="
				M481.2,112.9c-7.8,0-14.2,6.3-14.2,14.2v32.5h28.3v-32.5C495.4,119.3,489,112.9,481.2,112.9z"/>
			
				<line fill="none" stroke="#13658B" stroke-width="3.1485" stroke-linecap="round" stroke-linejoin="round" stroke-miterlimit="10" x1="325.4" y1="130.9" x2="495.4" y2="130.9"/>
			
				<polygon fill="none" stroke="#13658B" stroke-width="3.1485" stroke-linecap="round" stroke-linejoin="round" stroke-miterlimit="10" points="
				396.2,159.6 410.4,130.9 424.5,159.6 			"/>
			
				<path fill="none" stroke="#13658B" stroke-width="3.1485" stroke-linecap="round" stroke-linejoin="round" stroke-miterlimit="10" d="
				M481.2,112.9c0,0-70.8-28.3-70.8-55.1c0,26.8-70.8,55.1-70.8,55.1"/>
			
				<path fill="none" stroke="#13658B" stroke-width="3.1485" stroke-linecap="round" stroke-linejoin="round" stroke-miterlimit="10" d="
				M375.7,115.3c0,0,27.3-14.4,34.7-57.5v63.8"/>
			
				<path fill="none" stroke="#13658B" stroke-width="3.1485" stroke-linecap="round" stroke-linejoin="round" stroke-miterlimit="10" d="
				M445,115.3c0,0-27.3-14.4-34.7-57.5"/>
			<path fill="#FFFFFF" d="M454.2,42c0,0-6.6,5.9-19.9-2.1c-13.3-8-23.9,0-23.9,0v12.6c0,0,9.1-10.9,24.1-6.9
				C449.5,49.6,454.2,42,454.2,42"/>
			
				<path fill="none" stroke="#13658B" stroke-width="3.1485" stroke-linecap="round" stroke-linejoin="round" stroke-miterlimit="10" d="
				M454.2,42c0,0-6.6,5.9-19.9-2.1c-13.3-8-23.9,0-23.9,0v12.6c0,0,9.1-10.9,24.1-6.9C449.5,49.6,454.2,42,454.2,42"/>
			<g>
				<g>
					<path fill="none" stroke="#13658B" stroke-width="2.099" stroke-linecap="round" stroke-linejoin="round" d="M165.8,67.6
						c0,0,0.7,0.6,2,1.7"/>
					
						<path fill="none" stroke="#13658B" stroke-width="2.099" stroke-linecap="round" stroke-linejoin="round" stroke-dasharray="5.1256,5.1256" d="
						M171.9,72.5c19.9,14.8,86.9,55.8,172,12.3"/>
					<path fill="none" stroke="#13658B" stroke-width="2.099" stroke-linecap="round" stroke-linejoin="round" d="M346.1,83.6
						c0.8-0.4,1.5-0.8,2.3-1.2c0,0,0.6,0.8,2,1.7"/>
					
						<path fill="none" stroke="#13658B" stroke-width="2.099" stroke-linecap="round" stroke-linejoin="round" stroke-dasharray="5.1747,5.1747" d="
						M355.1,86.2c2.1,0.6,4.6,0.8,7.7,0.4"/>
					<path fill="none" stroke="#13658B" stroke-width="2.099" stroke-linecap="round" stroke-linejoin="round" d="M365.3,86.1
						c0.8-0.2,1.7-0.4,2.5-0.7"/>
				</g>
			</g>
			<g>
				<g>
					<path fill="none" stroke="#5AB4E0" stroke-width="2.099" stroke-linecap="round" stroke-linejoin="round" d="M521.6,85.4
						c0,0,0.1,0.9,0.5,2.6"/>
					
						<path fill="none" stroke="#5AB4E0" stroke-width="2.099" stroke-linecap="round" stroke-linejoin="round" stroke-dasharray="5.0767,5.0767" d="
						M523.5,92.8c5.2,16.6,23.8,55.2,84.3,57.3"/>
					<path fill="none" stroke="#5AB4E0" stroke-width="2.099" stroke-linecap="round" stroke-linejoin="round" d="M610.3,150.2
						c0.9,0,1.7,0,2.6,0"/>
				</g>
			</g>
			
				<path fill="none" stroke="#13658B" stroke-width="2.099" stroke-linecap="round" stroke-linejoin="round" stroke-miterlimit="10" d="
				M508,136.3c0,0,70.7,6.6,89.6-32.1c0,0,52.5,29.9,103.6-4.4"/>
			
				<path fill="none" stroke="#13658B" stroke-width="3.1485" stroke-linecap="round" stroke-linejoin="round" stroke-miterlimit="10" d="
				M495.4,130.9"/>
			
				<path fill="none" stroke="#13658B" stroke-width="3.1485" stroke-linecap="round" stroke-linejoin="round" stroke-miterlimit="10" d="
				M325.4,130.9"/>
			
				<path fill="none" stroke="#13658B" stroke-width="3.1485" stroke-linecap="round" stroke-linejoin="round" stroke-miterlimit="10" d="
				M325.4,134.5c0,0-12.9,25.1-36.7,25.1"/>
			
				<path fill="none" stroke="#13658B" stroke-width="3.1485" stroke-linecap="round" stroke-linejoin="round" stroke-miterlimit="10" d="
				M495.4,134.5c0,0,12.9,25.1,36.7,25.1"/>
			
				<circle fill="none" stroke="#13658B" stroke-width="2.099" stroke-linecap="round" stroke-linejoin="round" stroke-miterlimit="10" cx="244.4" cy="80.6" r="3.5"/>
			
				<circle fill="none" stroke="#13658B" stroke-width="2.099" stroke-linecap="round" stroke-linejoin="round" stroke-miterlimit="10" cx="285.1" cy="127.1" r="3.5"/>
			
				<circle fill="none" stroke="#5AB4E0" stroke-width="2.099" stroke-linecap="round" stroke-linejoin="round" stroke-miterlimit="10" cx="481.2" cy="79.9" r="3.5"/>
			
				<circle fill="none" stroke="#13658B" stroke-width="2.099" stroke-linecap="round" stroke-linejoin="round" stroke-miterlimit="10" cx="642.7" cy="96" r="3.5"/>
			<g>
				<g>
					
						<line fill="none" stroke="#5AB4E0" stroke-width="2.099" stroke-linecap="round" stroke-linejoin="round" stroke-miterlimit="10" x1="230.1" y1="40.3" x2="231.3" y2="45.1"/>
					
						<line fill="none" stroke="#5AB4E0" stroke-width="2.099" stroke-linecap="round" stroke-linejoin="round" stroke-miterlimit="10" x1="236.9" y1="41.5" x2="234.4" y2="45.7"/>
					
						<line fill="none" stroke="#5AB4E0" stroke-width="2.099" stroke-linecap="round" stroke-linejoin="round" stroke-miterlimit="10" x1="240.8" y1="47.1" x2="236.1" y2="48.3"/>
					
						<line fill="none" stroke="#5AB4E0" stroke-width="2.099" stroke-linecap="round" stroke-linejoin="round" stroke-miterlimit="10" x1="239.6" y1="53.9" x2="235.4" y2="51.4"/>
					
						<line fill="none" stroke="#5AB4E0" stroke-width="2.099" stroke-linecap="round" stroke-linejoin="round" stroke-miterlimit="10" x1="234" y1="57.8" x2="232.8" y2="53.1"/>
					
						<line fill="none" stroke="#5AB4E0" stroke-width="2.099" stroke-linecap="round" stroke-linejoin="round" stroke-miterlimit="10" x1="227.3" y1="56.6" x2="229.8" y2="52.4"/>
					
						<line fill="none" stroke="#5AB4E0" stroke-width="2.099" stroke-linecap="round" stroke-linejoin="round" stroke-miterlimit="10" x1="223.3" y1="51" x2="228.1" y2="49.8"/>
					
						<line fill="none" stroke="#5AB4E0" stroke-width="2.099" stroke-linecap="round" stroke-linejoin="round" stroke-miterlimit="10" x1="224.5" y1="44.3" x2="228.7" y2="46.8"/>
				</g>
			</g>
			<g>
				<g>
					
						<line fill="none" stroke="#13658B" stroke-width="2.099" stroke-linecap="round" stroke-linejoin="round" stroke-miterlimit="10" x1="564.1" y1="77.8" x2="565.3" y2="82.6"/>
					
						<line fill="none" stroke="#13658B" stroke-width="2.099" stroke-linecap="round" stroke-linejoin="round" stroke-miterlimit="10" x1="570.9" y1="79" x2="568.4" y2="83.2"/>
					
						<line fill="none" stroke="#13658B" stroke-width="2.099" stroke-linecap="round" stroke-linejoin="round" stroke-miterlimit="10" x1="574.8" y1="84.6" x2="570" y2="85.8"/>
					
						<line fill="none" stroke="#13658B" stroke-width="2.099" stroke-linecap="round" stroke-linejoin="round" stroke-miterlimit="10" x1="573.6" y1="91.4" x2="569.4" y2="88.9"/>
					
						<line fill="none" stroke="#13658B" stroke-width="2.099" stroke-linecap="round" stroke-linejoin="round" stroke-miterlimit="10" x1="568" y1="95.3" x2="566.8" y2="90.6"/>
					
						<line fill="none" stroke="#13658B" stroke-width="2.099" stroke-linecap="round" stroke-linejoin="round" stroke-miterlimit="10" x1="561.2" y1="94.1" x2="563.7" y2="89.9"/>
					
						<line fill="none" stroke="#13658B" stroke-width="2.099" stroke-linecap="round" stroke-linejoin="round" stroke-miterlimit="10" x1="557.3" y1="88.5" x2="562.1" y2="87.3"/>
					
						<line fill="none" stroke="#13658B" stroke-width="2.099" stroke-linecap="round" stroke-linejoin="round" stroke-miterlimit="10" x1="558.5" y1="81.8" x2="562.7" y2="84.3"/>
				</g>
			</g>
			<g>
				
					<line fill="none" stroke="#5AB4E0" stroke-width="2.099" stroke-linecap="round" stroke-linejoin="round" stroke-miterlimit="10" x1="163.5" y1="104.6" x2="168.2" y2="109.4"/>
				
					<line fill="none" stroke="#5AB4E0" stroke-width="2.099" stroke-linecap="round" stroke-linejoin="round" stroke-miterlimit="10" x1="168.2" y1="104.6" x2="163.5" y2="109.4"/>
			</g>
			<g>
				<g>
					
						<line fill="none" stroke="#13658B" stroke-width="2.099" stroke-linecap="round" stroke-linejoin="round" stroke-miterlimit="10" x1="363.1" y1="24.7" x2="367.9" y2="29.5"/>
					
						<line fill="none" stroke="#13658B" stroke-width="2.099" stroke-linecap="round" stroke-linejoin="round" stroke-miterlimit="10" x1="367.9" y1="24.7" x2="363.1" y2="29.5"/>
				</g>
			</g>
			<g>
				<g>
					
						<line fill="none" stroke="#5AB4E0" stroke-width="2.099" stroke-linecap="round" stroke-linejoin="round" stroke-miterlimit="10" x1="673.5" y1="140.5" x2="678.3" y2="145.3"/>
					
						<line fill="none" stroke="#5AB4E0" stroke-width="2.099" stroke-linecap="round" stroke-linejoin="round" stroke-miterlimit="10" x1="678.3" y1="140.5" x2="673.5" y2="145.3"/>
				</g>
			</g>
		</g>
		
			<line fill="none" stroke="#5AB4E0" stroke-width="2.099" stroke-linecap="round" stroke-linejoin="round" stroke-miterlimit="10" x1="256.5" y1="164.8" x2="353.7" y2="164.8"/>
		
			<line fill="none" stroke="#5AB4E0" stroke-width="2.099" stroke-linecap="round" stroke-linejoin="round" stroke-miterlimit="10" x1="514.1" y1="164.8" x2="611.3" y2="164.8"/>
		
			<line fill="none" stroke="#5AB4E0" stroke-width="2.099" stroke-linecap="round" stroke-linejoin="round" stroke-miterlimit="10" x1="490.8" y1="176.6" x2="432.3" y2="176.6"/>
		
			<line fill="none" stroke="#5AB4E0" stroke-width="2.099" stroke-linecap="round" stroke-linejoin="round" stroke-miterlimit="10" x1="350.2" y1="194.3" x2="328.9" y2="194.3"/>
		
			<line fill="none" stroke="#5AB4E0" stroke-width="2.099" stroke-linecap="round" stroke-linejoin="round" stroke-miterlimit="10" x1="385.6" y1="172.4" x2="374.9" y2="172.4"/>
		
			<line fill="none" stroke="#5AB4E0" stroke-width="2.099" stroke-linecap="round" stroke-linejoin="round" stroke-miterlimit="10" x1="537.4" y1="189.3" x2="526.8" y2="189.3"/>
	</g>
	<g>
		<g>
			<g>
				
					<ellipse transform="matrix(0.9301 -0.3674 0.3674 0.9301 -37.274 42.6309)" fill="none" stroke="#13658B" stroke-width="3.1485" stroke-linecap="round" stroke-linejoin="round" stroke-miterlimit="10" cx="93.3" cy="119.2" rx="3.9" ry="10.5"/>
				
					<path fill="none" stroke="#13658B" stroke-width="3.1485" stroke-linecap="round" stroke-linejoin="round" stroke-miterlimit="10" d="
					M97.2,129l-27.8,17.3c-8.4,3.3-17.9-0.8-21.2-9.2c-3.3-8.4,0.8-17.9,9.2-21.2l32.2-6.4"/>
				
					<line fill="none" stroke="#13658B" stroke-width="3.1485" stroke-linecap="round" stroke-linejoin="round" stroke-miterlimit="10" x1="57.3" y1="115.9" x2="69.3" y2="146.3"/>
				
					<line fill="none" stroke="#13658B" stroke-width="3.1485" stroke-linecap="round" stroke-linejoin="round" stroke-miterlimit="10" x1="63.1" y1="114.7" x2="74" y2="142.3"/>
				
					<line fill="none" stroke="#13658B" stroke-width="3.1485" stroke-linecap="round" stroke-linejoin="round" stroke-miterlimit="10" x1="56.1" y1="145.7" x2="56.1" y2="153.4"/>
				
					<line fill="none" stroke="#13658B" stroke-width="3.1485" stroke-linecap="round" stroke-linejoin="round" stroke-miterlimit="10" x1="69" y1="153.4" x2="69" y2="147.4"/>
				
					<rect x="45.3" y="153.4" fill="none" stroke="#13658B" stroke-width="3.1485" stroke-linecap="round" stroke-linejoin="round" stroke-miterlimit="10" width="34.4" height="4.3"/>
			</g>
			<circle fill="#5AB4E0" cx="46.1" cy="103.4" r="1.6"/>
			<circle fill="#5AB4E0" cx="40.8" cy="101.2" r="1.6"/>
			<circle fill="#5AB4E0" cx="35" cy="102.3" r="1.6"/>
			<circle fill="#5AB4E0" cx="30.8" cy="106.3" r="1.6"/>
			<circle fill="#5AB4E0" cx="29.4" cy="112" r="1.6"/>
			<circle fill="#5AB4E0" cx="31.4" cy="117.5" r="1.6"/>
			<circle fill="#5AB4E0" cx="36" cy="121" r="1.6"/>
		</g>
		
			<path fill="none" stroke="#13658B" stroke-width="3.1485" stroke-linecap="round" stroke-linejoin="round" stroke-miterlimit="10" d="
			M59.2,115.5c0,0-3.6-5.1-10.4-2.5s-9.6-1.8-9.6-1.8"/>
		
			<line fill="none" stroke="#5AB4E0" stroke-width="2.099" stroke-linecap="round" stroke-linejoin="round" stroke-miterlimit="10" x1="105" y1="114.9" x2="124.7" y2="107.4"/>
		
			<line fill="none" stroke="#5AB4E0" stroke-width="2.099" stroke-linecap="round" stroke-linejoin="round" stroke-miterlimit="10" x1="102.1" y1="109.4" x2="107.7" y2="102.3"/>
		
			<line fill="none" stroke="#5AB4E0" stroke-width="2.099" stroke-linecap="round" stroke-linejoin="round" stroke-miterlimit="10" x1="106.3" y1="121" x2="116.1" y2="121"/>
	</g>
	<g>
		<g>
			<g>
				
					<ellipse transform="matrix(-0.9301 -0.3674 0.3674 -0.9301 1396.0907 504.1947)" fill="none" stroke="#13658B" stroke-width="3.1485" stroke-linecap="round" stroke-linejoin="round" stroke-miterlimit="10" cx="746" cy="119.2" rx="3.9" ry="10.5"/>
				
					<path fill="none" stroke="#13658B" stroke-width="3.1485" stroke-linecap="round" stroke-linejoin="round" stroke-miterlimit="10" d="
					M742.2,129l27.8,17.3c8.4,3.3,17.9-0.8,21.2-9.2c3.3-8.4-0.8-17.9-9.2-21.2l-32.2-6.4"/>
				
					<line fill="none" stroke="#13658B" stroke-width="3.1485" stroke-linecap="round" stroke-linejoin="round" stroke-miterlimit="10" x1="782" y1="115.9" x2="770" y2="146.3"/>
				
					<line fill="none" stroke="#13658B" stroke-width="3.1485" stroke-linecap="round" stroke-linejoin="round" stroke-miterlimit="10" x1="776.3" y1="114.7" x2="765.4" y2="142.3"/>
				
					<line fill="none" stroke="#13658B" stroke-width="3.1485" stroke-linecap="round" stroke-linejoin="round" stroke-miterlimit="10" x1="783.3" y1="145.7" x2="783.3" y2="153.4"/>
				
					<line fill="none" stroke="#13658B" stroke-width="3.1485" stroke-linecap="round" stroke-linejoin="round" stroke-miterlimit="10" x1="770.4" y1="153.4" x2="770.4" y2="147.4"/>
				
					<rect x="759.7" y="153.4" fill="none" stroke="#13658B" stroke-width="3.1485" stroke-linecap="round" stroke-linejoin="round" stroke-miterlimit="10" width="34.4" height="4.3"/>
			</g>
			<circle fill="#5AB4E0" cx="793.2" cy="103.4" r="1.6"/>
			<circle fill="#5AB4E0" cx="798.6" cy="101.2" r="1.6"/>
			<circle fill="#5AB4E0" cx="804.3" cy="102.3" r="1.6"/>
			<circle fill="#5AB4E0" cx="808.6" cy="106.3" r="1.6"/>
			<circle fill="#5AB4E0" cx="809.9" cy="112" r="1.6"/>
			<circle fill="#5AB4E0" cx="808" cy="117.5" r="1.6"/>
			<circle fill="#5AB4E0" cx="803.4" cy="121" r="1.6"/>
		</g>
		
			<path fill="none" stroke="#13658B" stroke-width="3.1485" stroke-linecap="round" stroke-linejoin="round" stroke-miterlimit="10" d="
			M780.2,115.5c0,0,3.6-5.1,10.4-2.5c6.8,2.5,9.6-1.8,9.6-1.8"/>
		
			<line fill="none" stroke="#5AB4E0" stroke-width="2.099" stroke-linecap="round" stroke-linejoin="round" stroke-miterlimit="10" x1="734.4" y1="114.9" x2="714.7" y2="107.4"/>
		
			<line fill="none" stroke="#5AB4E0" stroke-width="2.099" stroke-linecap="round" stroke-linejoin="round" stroke-miterlimit="10" x1="737.3" y1="109.4" x2="731.7" y2="102.3"/>
		
			<line fill="none" stroke="#5AB4E0" stroke-width="2.099" stroke-linecap="round" stroke-linejoin="round" stroke-miterlimit="10" x1="733.1" y1="121" x2="723.2" y2="121"/>
	</g>
	
		<line fill="none" stroke="#5AB4E0" stroke-width="2.099" stroke-linecap="round" stroke-linejoin="round" stroke-miterlimit="10" x1="98.9" y1="166" x2="58.3" y2="166"/>
	
		<line fill="none" stroke="#5AB4E0" stroke-width="2.099" stroke-linecap="round" stroke-linejoin="round" stroke-miterlimit="10" x1="770" y1="164.8" x2="751.3" y2="164.8"/>
	
		<line fill="none" stroke="#5AB4E0" stroke-width="2.099" stroke-linecap="round" stroke-linejoin="round" stroke-miterlimit="10" x1="790.2" y1="163.1" x2="812.2" y2="163.1"/>
	
		<line fill="none" stroke="#5AB4E0" stroke-width="2.099" stroke-linecap="round" stroke-linejoin="round" stroke-miterlimit="10" x1="737.3" y1="176.6" x2="748.2" y2="176.6"/>
</g>
</svg>
