<?xml version="1.0" encoding="utf-8"?>
<!-- Generator: Adobe Illustrator 18.0.0, SVG Export Plug-In . SVG Version: 6.00 Build 0)  -->
<!DOCTYPE svg PUBLIC "-//W3C//DTD SVG 1.1//EN" "http://www.w3.org/Graphics/SVG/1.1/DTD/svg11.dtd">
<svg version="1.1" id="Layer_1" xmlns="http://www.w3.org/2000/svg" xmlns:xlink="http://www.w3.org/1999/xlink" x="0px" y="0px"
	 viewBox="0 0 388.7 219.6" enable-background="new 0 0 388.7 219.6" xml:space="preserve">
<g>
	<g>
		<g>
			<polygon fill="#E95F58" points="182.5,134.2 102.2,134.2 102.2,162.9 168.3,162.9 			"/>
			<polygon fill="#E95F58" points="182.3,134.2 262.9,134.2 262.9,162.9 196.8,162.9 			"/>
			<path fill="#FFFFFF" d="M125.8,130.4c0-7.8,6.3-14.2,14.2-14.2c7.8,0,14.2,6.3,14.2,14.2c0-7.8,6.3-14.2,14.2-14.2
				c7.8,0,14.2,6.3,14.2,14.2c0-7.8,6.3-14.2,14.2-14.2c7.8,0,14.2,6.3,14.2,14.2c0-7.8,6.3-14.2,14.2-14.2
				c7.8,0,14.2,6.3,14.2,14.2c0-7.8,6.3-14.2,14.2-14.2c0,0-70.8-28.3-70.8-55.1c0,26.8-70.8,55.1-70.8,55.1
				C119.5,116.2,125.8,122.5,125.8,130.4z"/>
			
				<path fill="none" stroke="#10658C" stroke-width="3.1485" stroke-linecap="round" stroke-linejoin="round" stroke-miterlimit="10" d="
				M111.6,116.2c-7.8,0-14.2,6.3-14.2,14.2v32.5h28.3v-32.5C125.8,122.5,119.5,116.2,111.6,116.2z"/>
			
				<path fill="none" stroke="#10658C" stroke-width="3.1485" stroke-linecap="round" stroke-linejoin="round" stroke-miterlimit="10" d="
				M140,116.2c-7.8,0-14.2,6.3-14.2,14.2v32.5h28.3v-32.5C154.1,122.5,147.8,116.2,140,116.2z"/>
			
				<path fill="none" stroke="#10658C" stroke-width="3.1485" stroke-linecap="round" stroke-linejoin="round" stroke-miterlimit="10" d="
				M168.3,116.2c-7.8,0-14.2,6.3-14.2,14.2v32.5h28.3v-32.5C182.5,122.5,176.1,116.2,168.3,116.2z"/>
			
				<path fill="none" stroke="#10658C" stroke-width="3.1485" stroke-linecap="round" stroke-linejoin="round" stroke-miterlimit="10" d="
				M196.6,116.2c-7.8,0-14.2,6.3-14.2,14.2v32.5h28.3v-32.5C210.8,122.5,204.5,116.2,196.6,116.2z"/>
			
				<path fill="none" stroke="#10658C" stroke-width="3.1485" stroke-linecap="round" stroke-linejoin="round" stroke-miterlimit="10" d="
				M225,116.2c-7.8,0-14.2,6.3-14.2,14.2v32.5h28.3v-32.5C239.1,122.5,232.8,116.2,225,116.2z"/>
			
				<path fill="none" stroke="#10658C" stroke-width="3.1485" stroke-linecap="round" stroke-linejoin="round" stroke-miterlimit="10" d="
				M253.3,116.2c-7.8,0-14.2,6.3-14.2,14.2v32.5h28.3v-32.5C267.5,122.5,261.1,116.2,253.3,116.2z"/>
			
				<line fill="none" stroke="#10658C" stroke-width="3.1485" stroke-linecap="round" stroke-linejoin="round" stroke-miterlimit="10" x1="97.5" y1="134.2" x2="267.5" y2="134.2"/>
			
				<polygon fill="none" stroke="#10658C" stroke-width="3.1485" stroke-linecap="round" stroke-linejoin="round" stroke-miterlimit="10" points="
				168.3,162.9 182.5,134.2 196.6,162.9 			"/>
			
				<path fill="none" stroke="#10658C" stroke-width="3.1485" stroke-linecap="round" stroke-linejoin="round" stroke-miterlimit="10" d="
				M253.3,116.2c0,0-70.8-28.3-70.8-55.1c0,26.8-70.8,55.1-70.8,55.1"/>
			
				<path fill="none" stroke="#10658C" stroke-width="3.1485" stroke-linecap="round" stroke-linejoin="round" stroke-miterlimit="10" d="
				M147.8,118.6c0,0,27.3-14.4,34.7-57.5v63.8"/>
			
				<path fill="none" stroke="#10658C" stroke-width="3.1485" stroke-linecap="round" stroke-linejoin="round" stroke-miterlimit="10" d="
				M217.1,118.6c0,0-27.3-14.4-34.7-57.5"/>
			<path fill="#FFFFFF" d="M226.3,45.3c0,0-6.6,5.9-19.9-2.1c-13.3-8-23.9,0-23.9,0v12.6c0,0,9.1-10.9,24.1-6.9
				S226.3,45.3,226.3,45.3"/>
			
				<path fill="none" stroke="#10658C" stroke-width="3.1485" stroke-linecap="round" stroke-linejoin="round" stroke-miterlimit="10" d="
				M226.3,45.3c0,0-6.6,5.9-19.9-2.1c-13.3-8-23.9,0-23.9,0v12.6c0,0,9.1-10.9,24.1-6.9S226.3,45.3,226.3,45.3"/>
			
				<path fill="none" stroke="#10658C" stroke-width="3.1485" stroke-linecap="round" stroke-linejoin="round" stroke-miterlimit="10" d="
				M267.5,134.2"/>
			
				<path fill="none" stroke="#10658C" stroke-width="3.1485" stroke-linecap="round" stroke-linejoin="round" stroke-miterlimit="10" d="
				M97.5,134.2"/>
			
				<path fill="none" stroke="#10658C" stroke-width="3.1485" stroke-linecap="round" stroke-linejoin="round" stroke-miterlimit="10" d="
				M97.5,137.8c0,0-12.9,25.1-36.7,25.1"/>
			
				<path fill="none" stroke="#10658C" stroke-width="3.1485" stroke-linecap="round" stroke-linejoin="round" stroke-miterlimit="10" d="
				M267.5,137.8c0,0,12.9,25.1,36.7,25.1"/>
			
				<circle fill="none" stroke="#59B5E1" stroke-width="2.099" stroke-linecap="round" stroke-linejoin="round" stroke-miterlimit="10" cx="35.4" cy="95.8" r="3.5"/>
			
				<circle fill="none" stroke="#10658C" stroke-width="2.099" stroke-linecap="round" stroke-linejoin="round" stroke-miterlimit="10" cx="71.2" cy="125.4" r="3.5"/>
			
				<circle fill="none" stroke="#59B5E1" stroke-width="2.099" stroke-linecap="round" stroke-linejoin="round" stroke-miterlimit="10" cx="253.3" cy="83.1" r="3.5"/>
			
				<circle fill="none" stroke="#10658C" stroke-width="2.099" stroke-linecap="round" stroke-linejoin="round" stroke-miterlimit="10" cx="295.6" cy="60.9" r="3.5"/>
			<g>
				<g>
					
						<line fill="none" stroke="#59B5E1" stroke-width="2.099" stroke-linecap="round" stroke-linejoin="round" stroke-miterlimit="10" x1="95.5" y1="70.9" x2="96.7" y2="75.6"/>
					
						<line fill="none" stroke="#59B5E1" stroke-width="2.099" stroke-linecap="round" stroke-linejoin="round" stroke-miterlimit="10" x1="102.3" y1="72" x2="99.8" y2="76.3"/>
					
						<line fill="none" stroke="#59B5E1" stroke-width="2.099" stroke-linecap="round" stroke-linejoin="round" stroke-miterlimit="10" x1="106.2" y1="77.7" x2="101.5" y2="78.9"/>
					
						<line fill="none" stroke="#59B5E1" stroke-width="2.099" stroke-linecap="round" stroke-linejoin="round" stroke-miterlimit="10" x1="105" y1="84.4" x2="100.8" y2="81.9"/>
					
						<line fill="none" stroke="#59B5E1" stroke-width="2.099" stroke-linecap="round" stroke-linejoin="round" stroke-miterlimit="10" x1="99.4" y1="88.4" x2="98.2" y2="83.6"/>
					
						<line fill="none" stroke="#59B5E1" stroke-width="2.099" stroke-linecap="round" stroke-linejoin="round" stroke-miterlimit="10" x1="92.6" y1="87.2" x2="95.1" y2="83"/>
					
						<line fill="none" stroke="#59B5E1" stroke-width="2.099" stroke-linecap="round" stroke-linejoin="round" stroke-miterlimit="10" x1="88.7" y1="81.6" x2="93.5" y2="80.3"/>
					
						<line fill="none" stroke="#59B5E1" stroke-width="2.099" stroke-linecap="round" stroke-linejoin="round" stroke-miterlimit="10" x1="89.9" y1="74.8" x2="94.1" y2="77.3"/>
				</g>
			</g>
			<g>
				<g>
					
						<line fill="none" stroke="#10658C" stroke-width="2.099" stroke-linecap="round" stroke-linejoin="round" stroke-miterlimit="10" x1="302.3" y1="118.1" x2="303.5" y2="122.8"/>
					
						<line fill="none" stroke="#10658C" stroke-width="2.099" stroke-linecap="round" stroke-linejoin="round" stroke-miterlimit="10" x1="309" y1="119.3" x2="306.5" y2="123.5"/>
					
						<line fill="none" stroke="#10658C" stroke-width="2.099" stroke-linecap="round" stroke-linejoin="round" stroke-miterlimit="10" x1="313" y1="124.9" x2="308.2" y2="126.1"/>
					
						<line fill="none" stroke="#10658C" stroke-width="2.099" stroke-linecap="round" stroke-linejoin="round" stroke-miterlimit="10" x1="311.8" y1="131.6" x2="307.5" y2="129.1"/>
					
						<line fill="none" stroke="#10658C" stroke-width="2.099" stroke-linecap="round" stroke-linejoin="round" stroke-miterlimit="10" x1="306.2" y1="135.6" x2="304.9" y2="130.8"/>
					
						<line fill="none" stroke="#10658C" stroke-width="2.099" stroke-linecap="round" stroke-linejoin="round" stroke-miterlimit="10" x1="299.4" y1="134.4" x2="301.9" y2="130.2"/>
					
						<line fill="none" stroke="#10658C" stroke-width="2.099" stroke-linecap="round" stroke-linejoin="round" stroke-miterlimit="10" x1="295.5" y1="128.8" x2="300.2" y2="127.6"/>
					
						<line fill="none" stroke="#10658C" stroke-width="2.099" stroke-linecap="round" stroke-linejoin="round" stroke-miterlimit="10" x1="296.6" y1="122" x2="300.9" y2="124.5"/>
				</g>
			</g>
			<g>
				<g>
					
						<line fill="none" stroke="#10658C" stroke-width="2.099" stroke-linecap="round" stroke-linejoin="round" stroke-miterlimit="10" x1="135.2" y1="28" x2="140" y2="32.8"/>
					
						<line fill="none" stroke="#10658C" stroke-width="2.099" stroke-linecap="round" stroke-linejoin="round" stroke-miterlimit="10" x1="140" y1="28" x2="135.2" y2="32.8"/>
				</g>
			</g>
			<g>
				<g>
					
						<line fill="none" stroke="#59B5E1" stroke-width="2.099" stroke-linecap="round" stroke-linejoin="round" stroke-miterlimit="10" x1="337.1" y1="100.5" x2="341.9" y2="105.3"/>
					
						<line fill="none" stroke="#59B5E1" stroke-width="2.099" stroke-linecap="round" stroke-linejoin="round" stroke-miterlimit="10" x1="341.9" y1="100.5" x2="337.1" y2="105.3"/>
				</g>
			</g>
		</g>
		
			<line fill="none" stroke="#59B5E1" stroke-width="2.099" stroke-linecap="round" stroke-linejoin="round" stroke-miterlimit="10" x1="28.6" y1="170.1" x2="125.8" y2="170.1"/>
		
			<line fill="none" stroke="#59B5E1" stroke-width="2.099" stroke-linecap="round" stroke-linejoin="round" stroke-miterlimit="10" x1="286.2" y1="168.1" x2="360.1" y2="168.1"/>
		
			<line fill="none" stroke="#59B5E1" stroke-width="2.099" stroke-linecap="round" stroke-linejoin="round" stroke-miterlimit="10" x1="262.9" y1="179.9" x2="204.4" y2="179.9"/>
		
			<line fill="none" stroke="#59B5E1" stroke-width="2.099" stroke-linecap="round" stroke-linejoin="round" stroke-miterlimit="10" x1="122.3" y1="191.6" x2="101" y2="191.6"/>
		
			<line fill="none" stroke="#59B5E1" stroke-width="2.099" stroke-linecap="round" stroke-linejoin="round" stroke-miterlimit="10" x1="157.7" y1="175.7" x2="147" y2="175.7"/>
		
			<line fill="none" stroke="#59B5E1" stroke-width="2.099" stroke-linecap="round" stroke-linejoin="round" stroke-miterlimit="10" x1="303.5" y1="189.5" x2="292.9" y2="189.5"/>
	</g>
</g>
</svg>
