<?xml version="1.0" encoding="utf-8"?>
<!-- Generator: Adobe Illustrator 18.0.0, SVG Export Plug-In . SVG Version: 6.00 Build 0)  -->
<!DOCTYPE svg PUBLIC "-//W3C//DTD SVG 1.1//EN" "http://www.w3.org/Graphics/SVG/1.1/DTD/svg11.dtd">
<svg version="1.1" id="Layer_1" xmlns="http://www.w3.org/2000/svg" xmlns:xlink="http://www.w3.org/1999/xlink" x="0px" y="0px"
	 viewBox="0 0 509 191" enable-background="new 0 0 509 191" xml:space="preserve">
<g>
	<g>
		<g>
			
				<rect x="153.6" y="74.9" fill="none" stroke="#13658B" stroke-width="3.1485" stroke-linecap="round" stroke-miterlimit="10" width="71.4" height="98.6"/>
			<polyline fill="none" stroke="#13658B" stroke-width="3.1485" stroke-linecap="round" stroke-miterlimit="10" points="
				160.3,68.3 231.7,68.3 231.7,166.9 			"/>
			<g>
				<path fill="#428ECC" d="M188.3,88.8l-3.4-1.2c-0.6,0.7-1.5,1-2.4,0.7c-0.9-0.3-1.4-1.2-1.4-2.1c0,0-1.8-0.6-2-0.7
					c-0.3-0.1-0.5-0.1-0.3,0.3c0.1,0.3,5.2,14.2,5.2,14.2c0.4,1.1,0.7,1,1,0.1l3.8-10.5C188.8,89.3,188.6,88.9,188.3,88.8z
					 M183.6,93.1c-0.1,0.3-0.4,0.5-0.7,0.3c-0.3-0.1-0.5-0.4-0.3-0.7c0.1-0.3,0.4-0.5,0.7-0.3C183.6,92.5,183.7,92.8,183.6,93.1z
					 M185.7,93.9c-0.1,0.3-0.4,0.5-0.7,0.3c-0.3-0.1-0.5-0.4-0.3-0.7c0.1-0.3,0.4-0.5,0.7-0.3C185.6,93.2,185.8,93.6,185.7,93.9z"/>
				<path fill="#E4342B" d="M176.1,85l-4.3,1.5c0,1.1-0.7,2.2-1.8,2.6c-1.1,0.4-2.3,0-3-0.8l-4.3,1.5c-0.4,0.1-0.6,0.6-0.4,0.9
					l6.5,17.8c0.1,0.4,0.6,0.6,0.9,0.4l4.3-1.5c0-1.1,0.7-2.2,1.8-2.6c1.1-0.4,2.3,0,3,0.8l4.3-1.5c0.4-0.1,0.6-0.6,0.4-0.9
					l-6.5-17.8C176.9,85,176.5,84.8,176.1,85z M167.2,96.5c-0.5,0.3-1.1,0-1.1-0.5c0-0.3,0.1-0.5,0.3-0.7c0.5-0.3,1.1,0,1.1,0.5
					C167.5,96,167.4,96.3,167.2,96.5z M169.7,95.5c-0.5,0.3-1.1,0-1.1-0.5c0-0.3,0.1-0.5,0.3-0.7c0.5-0.3,1.1,0,1.1,0.5
					C170.1,95.1,169.9,95.4,169.7,95.5z M172.3,94.6c-0.5,0.3-1.1,0-1.1-0.5c0-0.3,0.1-0.5,0.3-0.7c0.5-0.3,1.1,0,1.1,0.5
					C172.6,94.2,172.5,94.5,172.3,94.6z M174.8,93.7c-0.5,0.3-1.1,0-1.1-0.5c0-0.3,0.1-0.5,0.3-0.7c0.5-0.3,1.1,0,1.1,0.5
					C175.2,93.3,175,93.5,174.8,93.7z M177.4,92.8c-0.5,0.3-1.1,0-1.1-0.5c0-0.3,0.1-0.5,0.3-0.7c0.5-0.3,1.1,0,1.1,0.5
					C177.7,92.3,177.6,92.6,177.4,92.8z"/>
			</g>
			<rect x="162.3" y="119.6" fill="#13658B" width="52.7" height="3.4"/>
			<rect x="162.3" y="126.5" fill="#13658B" width="52.7" height="3.4"/>
			<rect x="162.3" y="133.4" fill="#13658B" width="52.7" height="3.4"/>
			<rect x="162.3" y="140.3" fill="#13658B" width="52.7" height="3.4"/>
			<rect x="162.3" y="147.2" fill="#13658B" width="52.7" height="3.4"/>
			<rect x="162.3" y="154.1" fill="#13658B" width="52.7" height="3.4"/>
			<rect x="162.3" y="161" fill="#13658B" width="33.7" height="3.4"/>
		</g>
		<g>
			<g>
				<path fill="#428ECC" d="M251,96c0,0.5-0.1,0.9-0.4,1.2c-0.3,0.3-0.7,0.4-1.2,0.4c-0.5,0-0.9-0.1-1.2-0.4
					c-0.3-0.3-0.4-0.7-0.4-1.2c0-0.5,0.1-0.9,0.4-1.2c0.3-0.3,0.7-0.4,1.2-0.4c0.5,0,0.9,0.1,1.2,0.4C250.9,95.1,251,95.5,251,96z
					 M248.2,99.2h2.3l0.5,9.1h-3.2L248.2,99.2z"/>
				<path fill="#428ECC" d="M261,97.2h5.4v7.1c-0.9,0.3-1.7,0.5-2.5,0.6c-0.8,0.1-1.6,0.2-2.4,0.2c-2.1,0-3.6-0.6-4.7-1.8
					c-1.1-1.2-1.6-3-1.6-5.2c0-2.2,0.6-3.9,1.9-5.2s3-1.9,5.3-1.9c1.4,0,2.8,0.3,4.1,0.8l-1,2.3c-1-0.5-2-0.7-3.1-0.7
					c-1.3,0-2.3,0.4-3,1.3s-1.1,2-1.1,3.4c0,1.5,0.3,2.6,0.9,3.4s1.5,1.2,2.7,1.2c0.6,0,1.2-0.1,1.8-0.2v-2.9H261V97.2z"/>
				<path fill="#428ECC" d="M274.5,99.7v5.3h-2.9V91.2h4c1.9,0,3.2,0.3,4.1,1c0.9,0.7,1.3,1.7,1.3,3.1c0,0.8-0.2,1.5-0.7,2.1
					c-0.4,0.6-1.1,1.1-1.9,1.5c2.1,3.1,3.4,5.1,4,6h-3.2l-3.3-5.3H274.5z M274.5,97.3h0.9c0.9,0,1.6-0.2,2-0.5
					c0.4-0.3,0.7-0.8,0.7-1.4c0-0.6-0.2-1.1-0.7-1.4c-0.4-0.3-1.1-0.4-2.1-0.4h-0.9V97.3z"/>
				<path fill="#428ECC" d="M294.5,104.9l-1-3.3h-5l-1,3.3h-3.1l4.8-13.7h3.5l4.8,13.7H294.5z M292.8,99.2c-0.9-3-1.4-4.6-1.5-5
					s-0.2-0.7-0.2-0.9c-0.2,0.8-0.8,2.8-1.8,5.9H292.8z"/>
				<path fill="#428ECC" d="M307.1,93.4c-1.1,0-1.9,0.4-2.5,1.2c-0.6,0.8-0.9,2-0.9,3.4c0,3.1,1.1,4.6,3.4,4.6c1,0,2.1-0.2,3.5-0.7
					v2.4c-1.1,0.5-2.4,0.7-3.8,0.7c-2,0-3.5-0.6-4.6-1.8c-1.1-1.2-1.6-2.9-1.6-5.2c0-1.4,0.3-2.7,0.8-3.7c0.5-1.1,1.3-1.9,2.2-2.5
					c1-0.6,2.1-0.9,3.4-0.9c1.3,0,2.7,0.3,4,1l-0.9,2.4c-0.5-0.2-1-0.5-1.5-0.6C308.1,93.5,307.6,93.4,307.1,93.4z"/>
				<path fill="#428ECC" d="M315.4,104.9V91.2h2.9v13.7H315.4z"/>
				<path fill="#428ECC" d="M332,104.9l-1-3.3h-5l-1,3.3h-3.1l4.8-13.7h3.5l4.8,13.7H332z M330.4,99.2c-0.9-3-1.4-4.6-1.5-5
					s-0.2-0.7-0.2-0.9c-0.2,0.8-0.8,2.8-1.8,5.9H330.4z"/>
				<path fill="#428ECC" d="M346.9,101.1c0,1.2-0.4,2.2-1.3,2.9c-0.9,0.7-2.1,1.1-3.7,1.1c-1.5,0-2.8-0.3-3.9-0.8v-2.7
					c0.9,0.4,1.7,0.7,2.3,0.9c0.6,0.2,1.2,0.3,1.8,0.3c0.6,0,1.1-0.1,1.5-0.4c0.3-0.2,0.5-0.6,0.5-1.1c0-0.3-0.1-0.5-0.2-0.7
					s-0.4-0.4-0.7-0.6s-0.9-0.5-1.8-0.9c-0.8-0.4-1.5-0.8-1.9-1.1c-0.4-0.4-0.8-0.8-1-1.3c-0.2-0.5-0.4-1-0.4-1.7
					c0-1.2,0.4-2.2,1.2-2.9c0.8-0.7,2-1,3.4-1c0.7,0,1.4,0.1,2,0.3c0.6,0.2,1.3,0.4,2,0.7l-0.9,2.3c-0.7-0.3-1.3-0.5-1.8-0.6
					c-0.5-0.1-0.9-0.2-1.4-0.2c-0.5,0-1,0.1-1.3,0.4c-0.3,0.3-0.4,0.6-0.4,1c0,0.3,0.1,0.5,0.2,0.7c0.1,0.2,0.3,0.4,0.6,0.6
					c0.3,0.2,0.9,0.5,1.8,1c1.3,0.6,2.2,1.2,2.6,1.8C346.7,99.5,346.9,100.2,346.9,101.1z"/>
				<path fill="#428ECC" d="M350.7,103.6c0-0.5,0.1-0.9,0.4-1.2c0.3-0.3,0.7-0.4,1.2-0.4c0.5,0,0.9,0.1,1.2,0.4
					c0.3,0.3,0.4,0.7,0.4,1.2c0,0.5-0.1,0.9-0.4,1.2c-0.3,0.3-0.7,0.4-1.2,0.4c-0.5,0-0.9-0.1-1.2-0.4
					C350.8,104.5,350.7,104.1,350.7,103.6z M353.5,100.4h-2.3l-0.5-9.1h3.2L353.5,100.4z"/>
			</g>
		</g>
		<polyline fill="none" stroke="#428ECC" stroke-width="3.1485" stroke-linecap="round" stroke-miterlimit="10" points="
			355.4,117.1 249,117.1 241.8,124.9 		"/>
		<path fill="#FFDD00" stroke="#13658B" stroke-width="3" stroke-miterlimit="10" d="M222.7,71.2l-2.1-2.7c-0.8-1-0.1-2.4,1.2-2.4
			l3.4,0c0.5,0,1-0.2,1.2-0.7l1.9-2.8c0.7-1,2.3-0.8,2.7,0.4l1.1,3.2c0.2,0.5,0.5,0.8,1,1l3.3,1c1.2,0.4,1.5,1.9,0.5,2.7l-2.8,2
			c-0.4,0.3-0.6,0.8-0.6,1.3l0.1,3.4c0,1.3-1.4,2-2.4,1.3l-2.8-2c-0.4-0.3-0.9-0.4-1.4-0.2l-3.2,1.1c-1.2,0.4-2.3-0.7-1.9-1.9
			l1.1-3.2C223.1,72.1,223,71.6,222.7,71.2z"/>
	</g>
	<g>
		<g>
			<line fill="none" stroke="#CFDFE7" stroke-linecap="round" stroke-linejoin="round" x1="17.7" y1="17.6" x2="20.3" y2="17.6"/>
			
				<line fill="none" stroke="#CFDFE7" stroke-linecap="round" stroke-linejoin="round" stroke-dasharray="5.2631,5.2631" x1="25.6" y1="17.6" x2="486.1" y2="17.6"/>
			<line fill="none" stroke="#CFDFE7" stroke-linecap="round" stroke-linejoin="round" x1="488.7" y1="17.6" x2="491.3" y2="17.6"/>
		</g>
	</g>
</g>
</svg>
