<?xml version="1.0" encoding="utf-8"?>
<!-- Generator: Adobe Illustrator 18.0.0, SVG Export Plug-In . SVG Version: 6.00 Build 0)  -->
<!DOCTYPE svg PUBLIC "-//W3C//DTD SVG 1.1//EN" "http://www.w3.org/Graphics/SVG/1.1/DTD/svg11.dtd">
<svg version="1.1" id="Layer_1" xmlns="http://www.w3.org/2000/svg" xmlns:xlink="http://www.w3.org/1999/xlink" x="0px" y="0px"
	 viewBox="0 0 396 370.5" enable-background="new 0 0 396 370.5" xml:space="preserve">
<g>
	<g>
		<g>
			
				<path fill="none" stroke="#13658B" stroke-width="2.7388" stroke-linecap="round" stroke-linejoin="round" stroke-miterlimit="10" d="
				M242.3,249.6c-0.3-0.2-0.5-0.3-0.8-0.3c0.1,0.4,0.2,0.9,0.2,1.3c0.2,3.5-1.2,6.4-4.4,9.6c-3.6,3.6-13.2,8.9-23.4,13
				c-10,4-17.5,12.6-19.9,23.1c-2,8.5-5.6,20.4-12,28.8l-0.1,0.1l-0.2,0.3c-1.6,2.8-3.6,5.3-5.9,7.6c-14.6,14.6-38.5,14.6-53.1,0
				L92,302.3c-0.7-0.7-1.3-1.3-1.9-2c1.4,2.2,3.1,4.4,5.1,6.3l30.8,30.8c14.6,14.6,38.5,14.6,53.1,0c2.3-2.3,4.2-4.8,5.9-7.6
				l0.2-0.3l0.1-0.1c6.4-8.4,10-20.3,12-28.8c2.4-10.5,9.8-19.1,19.9-23.1c10.2-4.1,19.8-9.4,23.4-13c3.3-3.3,4.6-6.1,4.4-9.6
				C244.8,252.6,243.8,250.5,242.3,249.6z"/>
			
				<path fill="none" stroke="#13658B" stroke-width="2.7388" stroke-linecap="round" stroke-linejoin="round" stroke-miterlimit="10" d="
				M193.7,178.6c-3.7,4.8-5.5,8.8-5.8,9.6c-0.3,0.6-1.1,2.4-1.2,5c-0.1,2.7,0.7,6.7,4.7,10.7c0,0,0.1,0,0.1,0.1
				c-1.3-2.5-1.6-4.8-1.5-6.5c0.1-2.6,0.9-4.4,1.2-5c0.3-0.8,2.1-4.8,5.8-9.6c2.1-2.7,1.6-5.8,0.4-7.7c-0.5-0.9-1.3-1.7-2.4-2.3
				C195.4,174.6,195.2,176.7,193.7,178.6z"/>
		</g>
		
			<path fill="#E85F58" stroke="#13658B" stroke-width="2.7388" stroke-linecap="round" stroke-linejoin="round" stroke-miterlimit="10" d="
			M234.1,246.2c0.4-0.2,1.1-0.5,1.8-0.8c1.2-0.6,2.3-0.6,3.2,0c1.5,0.9,2.5,2.9,2.6,5.3c0.2,3.5-1.2,6.4-4.4,9.6
			c-3.6,3.6-13.2,8.9-23.4,13c-10,4-17.5,12.6-19.9,23.1c-2,8.5-5.6,20.4-12,28.8l-0.1,0.1l-0.2,0.3c-1.6,2.8-3.6,5.3-5.9,7.6
			c-14.6,14.6-38.5,14.6-53.1,0L92,302.3c-7.1-7.1-11-16.5-11-26.6c0-10,3.9-19.5,11-26.6c3-3,6.4-5.4,10.1-7.2l0.1-0.1
			c2.7-1.3,5.5-2.3,8.4-2.9l19.1-6.5c14.2-4.9,25.2-15.7,30.1-29.7c6.5-18.4,15.3-29.8,26.9-34.7c0.1,0,0.3-0.1,0.6-0.2
			c3.2-0.6,5.6,1.1,6.8,3c1.2,1.9,1.7,5-0.4,7.7c-3.7,4.8-5.5,8.8-5.8,9.6c-0.3,0.6-1.1,2.4-1.2,5c-0.1,2.7,0.7,6.7,4.7,10.7
			c1.9,1.9,4.3,3.2,7.2,3.8L179.6,226l18.2,18.2l7.4-7.6c-0.1,3.2,0.9,6.5,3.7,9.4C217,254,229.9,248.2,234.1,246.2L234.1,246.2z"/>
		
			<path fill="none" stroke="#13658B" stroke-width="2.7388" stroke-linecap="round" stroke-linejoin="round" stroke-miterlimit="10" d="
			M187,226.1c0,0,128.8-124.8,128.9-124.9"/>
		
			<line fill="none" stroke="#13658B" stroke-width="2.7388" stroke-linecap="round" stroke-linejoin="round" stroke-miterlimit="10" x1="323.2" y1="108.4" x2="197.8" y2="236.9"/>
		
			<path fill="#13658B" stroke="#13658B" stroke-width="2.7388" stroke-linecap="round" stroke-linejoin="round" stroke-miterlimit="10" d="
			M373.5,62.3l-24.4,40.2c0,0.1-0.1,0.1-0.2,0c-2.8-1.9-6.2-2.8-9.7-2.7c-4.3,0.1-8.4,2.1-11.4,5.1l-0.7,0.7c0,0-0.1,0-0.2,0
			l-7.9-7.9c0,0,0-0.1,0-0.1c0.2-0.5,0.4-1,0.5-1.4l1.6-5c0,0,0,0,0-0.1l50.7-30.3c0.2-0.1,0.4-0.2,0.6-0.2c0.4,0,0.8,0.3,1,0.6
			C373.7,61.5,373.7,61.9,373.5,62.3L373.5,62.3z"/>
		
			<line fill="none" stroke="#13658B" stroke-width="2.7388" stroke-linecap="round" stroke-linejoin="round" stroke-miterlimit="10" x1="157.3" y1="244.5" x2="179.5" y2="266.8"/>
		
			<line fill="none" stroke="#13658B" stroke-width="2.7388" stroke-linecap="round" stroke-linejoin="round" stroke-miterlimit="10" x1="151" y1="250.8" x2="173.3" y2="273"/>
		
			<line fill="none" stroke="#13658B" stroke-width="2.7388" stroke-linecap="round" stroke-linejoin="round" stroke-miterlimit="10" x1="144.8" y1="257" x2="167" y2="279.3"/>
		
			<circle fill="none" stroke="#FFFFFF" stroke-width="1.9472" stroke-linecap="round" stroke-linejoin="round" stroke-miterlimit="10" cx="162.3" cy="313.1" r="4.6"/>
		
			<circle fill="none" stroke="#FFFFFF" stroke-width="1.9472" stroke-linecap="round" stroke-linejoin="round" stroke-miterlimit="10" cx="144.7" cy="319" r="2.9"/>
		
			<path fill="none" stroke="#FFFFFF" stroke-width="1.9472" stroke-linecap="round" stroke-linejoin="round" stroke-miterlimit="10" d="
			M146.4,306.3l-27.5-27.5c-0.9-0.9-0.9-2.4,0-3.3l1.2-1.2c0.9-0.9,2.4-0.9,3.3,0l27.5,27.5c0.9,0.9,0.9,2.4,0,3.3l-1.2,1.2
			C148.8,307.2,147.3,307.2,146.4,306.3z"/>
		
			<circle fill="#E85F58" stroke="#13658B" stroke-width="2.7388" stroke-linecap="round" stroke-linejoin="round" stroke-miterlimit="10" cx="331.1" cy="81.1" r="3.9"/>
		
			<circle fill="#E85F58" stroke="#13658B" stroke-width="2.7388" stroke-linecap="round" stroke-linejoin="round" stroke-miterlimit="10" cx="342.3" cy="75.4" r="3.9"/>
		
			<circle fill="#E85F58" stroke="#13658B" stroke-width="2.7388" stroke-linecap="round" stroke-linejoin="round" stroke-miterlimit="10" cx="353.5" cy="69.7" r="3.9"/>
		
			<circle fill="#E85F58" stroke="#13658B" stroke-width="2.7388" stroke-linecap="round" stroke-linejoin="round" stroke-miterlimit="10" cx="364.7" cy="64.1" r="3.9"/>
	</g>
	<path fill="#30A1D8" d="M126.1,170l-2.9-3.8c-1.1-1.4-0.1-3.4,1.7-3.4l4.8,0c0.7,0,1.4-0.3,1.8-0.9l2.7-4c1-1.5,3.3-1.1,3.8,0.6
		l1.5,4.6c0.2,0.7,0.8,1.2,1.4,1.4l4.6,1.4c1.7,0.5,2.1,2.7,0.6,3.8l-3.9,2.8c-0.6,0.4-0.9,1.1-0.9,1.8l0.1,4.8c0,1.8-2,2.8-3.4,1.8
		l-3.9-2.8c-0.6-0.4-1.3-0.5-2-0.3l-4.6,1.6c-1.7,0.6-3.3-1-2.8-2.7l1.5-4.6C126.7,171.3,126.5,170.5,126.1,170z"/>
	
		<path fill="none" stroke="#13658B" stroke-width="2.2426" stroke-linecap="round" stroke-linejoin="round" stroke-miterlimit="10" d="
		M119.1,197.7c-14.2,19.1-41.2,23.1-60.3,8.9c-15.3-11.4-18.4-33-7.1-48.2c9.1-12.2,26.4-14.8,38.6-5.7c9.8,7.3,11.8,21.1,4.5,30.9
		c-5.8,7.8-16.9,9.4-24.7,3.6c-6.3-4.7-7.6-13.5-2.9-19.8c3.7-5,10.8-6,15.8-2.3c4,3,4.8,8.6,1.9,12.6c-2.4,3.2-6.9,3.9-10.1,1.5
		c-2.6-1.9-3.1-5.5-1.2-8.1"/>
	
		<path fill="none" stroke="#30A1D8" stroke-width="2.2426" stroke-linecap="round" stroke-linejoin="round" stroke-miterlimit="10" stroke-dasharray="5.6066,5.6066" d="
		M255.1,222.7c7.4-16.1,26.5-23.1,42.7-15.7c12.9,6,18.5,21.2,12.6,34.1c-4.8,10.3-17,14.8-27.3,10c-8.3-3.8-11.9-13.6-8-21.8
		c3-6.6,10.9-9.5,17.5-6.4c5.3,2.4,7.6,8.7,5.1,14c-2,4.2-7,6.1-11.2,4.1c-3.4-1.6-4.9-5.6-3.3-8.9c1.2-2.7,4.5-3.9,7.2-2.6
		c2.2,1,3.1,3.6,2.1,5.7"/>
	<path fill="#13658B" d="M59.4,310.2l4.2,2.3c1.3,0.7,1.3,2.5,0,3.2l-4.2,2.3c-0.3,0.2-0.6,0.4-0.7,0.7l-2.3,4.2
		c-0.7,1.3-2.5,1.3-3.2,0l-2.3-4.2c-0.2-0.3-0.4-0.6-0.7-0.7l-4.2-2.3c-1.3-0.7-1.3-2.5,0-3.2l4.2-2.3c0.3-0.2,0.6-0.4,0.7-0.7
		l2.3-4.2c0.7-1.3,2.5-1.3,3.2,0l2.3,4.2C58.8,309.8,59,310,59.4,310.2z"/>
	
		<path fill="none" stroke="#5AB4E0" stroke-width="2.2426" stroke-linecap="round" stroke-linejoin="round" stroke-miterlimit="10" d="
		M341.2,131l4.2,2.3c1.3,0.7,1.3,2.5,0,3.2l-4.2,2.3c-0.3,0.2-0.6,0.4-0.7,0.7l-2.3,4.2c-0.7,1.3-2.5,1.3-3.2,0l-2.3-4.2
		c-0.2-0.3-0.4-0.6-0.7-0.7l-4.2-2.3c-1.3-0.7-1.3-2.5,0-3.2l4.2-2.3c0.3-0.2,0.6-0.4,0.7-0.7l2.3-4.2c0.7-1.3,2.5-1.3,3.2,0
		l2.3,4.2C340.6,130.6,340.9,130.8,341.2,131z"/>
	<path fill="#30A1D8" d="M275.4,280.9l2.1,1.2c0.6,0.3,0.6,1.3,0,1.6l-2.1,1.2c-0.2,0.1-0.3,0.2-0.4,0.4l-1.2,2.1
		c-0.3,0.6-1.3,0.6-1.6,0l-1.2-2.1c-0.1-0.2-0.2-0.3-0.4-0.4l-2.1-1.2c-0.6-0.3-0.6-1.3,0-1.6l2.1-1.2c0.2-0.1,0.3-0.2,0.4-0.4
		l1.2-2.1c0.3-0.6,1.3-0.6,1.6,0l1.2,2.1C275.1,280.6,275.2,280.8,275.4,280.9z"/>
	
		<path fill="none" stroke="#5AB4E0" stroke-width="2.2426" stroke-linecap="round" stroke-linejoin="round" stroke-miterlimit="10" d="
		M22.3,118.9c0,0,121.8,29.6,177.9-75.1"/>
	<g>
		<g>
			<path fill="none" stroke="#13658B" stroke-width="2.2426" stroke-linecap="round" stroke-linejoin="round" d="M64.9,51.3
				c0,0,0.7,0.7,2.1,1.8"/>
			
				<path fill="none" stroke="#13658B" stroke-width="2.2426" stroke-linecap="round" stroke-linejoin="round" stroke-dasharray="5.4764,5.4764" d="
				M71.4,56.4c21.2,15.8,92.9,59.6,183.7,13.1"/>
			<path fill="none" stroke="#13658B" stroke-width="2.2426" stroke-linecap="round" stroke-linejoin="round" d="M257.6,68.3
				c0.8-0.4,1.6-0.9,2.5-1.3"/>
		</g>
	</g>
	
		<circle fill="none" stroke="#13658B" stroke-width="2.2426" stroke-linecap="round" stroke-linejoin="round" stroke-miterlimit="10" cx="148.8" cy="65.1" r="3.8"/>
	
		<circle fill="none" stroke="#13658B" stroke-width="2.2426" stroke-linecap="round" stroke-linejoin="round" stroke-miterlimit="10" cx="192.4" cy="114.8" r="3.8"/>
	<g>
		<g>
			
				<line fill="none" stroke="#5AB4E0" stroke-width="2.2426" stroke-linecap="round" stroke-linejoin="round" stroke-miterlimit="10" x1="133.6" y1="22.1" x2="134.9" y2="27.2"/>
			
				<line fill="none" stroke="#5AB4E0" stroke-width="2.2426" stroke-linecap="round" stroke-linejoin="round" stroke-miterlimit="10" x1="140.8" y1="23.3" x2="138.2" y2="27.9"/>
			
				<line fill="none" stroke="#5AB4E0" stroke-width="2.2426" stroke-linecap="round" stroke-linejoin="round" stroke-miterlimit="10" x1="145.1" y1="29.4" x2="140" y2="30.7"/>
			
				<line fill="none" stroke="#5AB4E0" stroke-width="2.2426" stroke-linecap="round" stroke-linejoin="round" stroke-miterlimit="10" x1="143.8" y1="36.6" x2="139.3" y2="33.9"/>
			
				<line fill="none" stroke="#5AB4E0" stroke-width="2.2426" stroke-linecap="round" stroke-linejoin="round" stroke-miterlimit="10" x1="137.8" y1="40.8" x2="136.5" y2="35.7"/>
			
				<line fill="none" stroke="#5AB4E0" stroke-width="2.2426" stroke-linecap="round" stroke-linejoin="round" stroke-miterlimit="10" x1="130.6" y1="39.5" x2="133.2" y2="35"/>
			
				<line fill="none" stroke="#5AB4E0" stroke-width="2.2426" stroke-linecap="round" stroke-linejoin="round" stroke-miterlimit="10" x1="126.3" y1="33.5" x2="131.4" y2="32.2"/>
			
				<line fill="none" stroke="#5AB4E0" stroke-width="2.2426" stroke-linecap="round" stroke-linejoin="round" stroke-miterlimit="10" x1="127.6" y1="26.3" x2="132.1" y2="29"/>
		</g>
	</g>
	<g>
		
			<line fill="none" stroke="#5AB4E0" stroke-width="2.2426" stroke-linecap="round" stroke-linejoin="round" stroke-miterlimit="10" x1="62.4" y1="90.8" x2="67.5" y2="95.9"/>
		
			<line fill="none" stroke="#5AB4E0" stroke-width="2.2426" stroke-linecap="round" stroke-linejoin="round" stroke-miterlimit="10" x1="67.5" y1="90.8" x2="62.4" y2="95.9"/>
	</g>
	<g>
		<g>
			
				<line fill="none" stroke="#13658B" stroke-width="2.2426" stroke-linecap="round" stroke-linejoin="round" stroke-miterlimit="10" x1="275.7" y1="26.8" x2="280.8" y2="31.9"/>
			
				<line fill="none" stroke="#13658B" stroke-width="2.2426" stroke-linecap="round" stroke-linejoin="round" stroke-miterlimit="10" x1="280.8" y1="26.8" x2="275.7" y2="31.9"/>
		</g>
	</g>
	
		<path fill="none" stroke="#13658B" stroke-width="2.2426" stroke-linecap="round" stroke-linejoin="round" stroke-miterlimit="10" d="
		M227.3,298.9c0,0,97.5,27.5,122.3-70.3"/>
	
		<circle fill="none" stroke="#13658B" stroke-width="2.2426" stroke-linecap="round" stroke-linejoin="round" stroke-miterlimit="10" cx="238" cy="314.1" r="3.8"/>
	<g>
		
			<line fill="none" stroke="#13658B" stroke-width="2.2426" stroke-linecap="round" stroke-linejoin="round" stroke-miterlimit="10" x1="351.4" y1="202.4" x2="352.8" y2="207.5"/>
		
			<line fill="none" stroke="#13658B" stroke-width="2.2426" stroke-linecap="round" stroke-linejoin="round" stroke-miterlimit="10" x1="358.7" y1="203.7" x2="356" y2="208.2"/>
		
			<line fill="none" stroke="#13658B" stroke-width="2.2426" stroke-linecap="round" stroke-linejoin="round" stroke-miterlimit="10" x1="362.9" y1="209.7" x2="357.8" y2="211"/>
		
			<line fill="none" stroke="#13658B" stroke-width="2.2426" stroke-linecap="round" stroke-linejoin="round" stroke-miterlimit="10" x1="361.6" y1="216.9" x2="357.1" y2="214.3"/>
		
			<line fill="none" stroke="#13658B" stroke-width="2.2426" stroke-linecap="round" stroke-linejoin="round" stroke-miterlimit="10" x1="355.6" y1="221.2" x2="354.3" y2="216.1"/>
		
			<line fill="none" stroke="#13658B" stroke-width="2.2426" stroke-linecap="round" stroke-linejoin="round" stroke-miterlimit="10" x1="348.4" y1="219.9" x2="351.1" y2="215.4"/>
		
			<line fill="none" stroke="#13658B" stroke-width="2.2426" stroke-linecap="round" stroke-linejoin="round" stroke-miterlimit="10" x1="344.2" y1="213.9" x2="349.3" y2="212.6"/>
		
			<line fill="none" stroke="#13658B" stroke-width="2.2426" stroke-linecap="round" stroke-linejoin="round" stroke-miterlimit="10" x1="345.4" y1="206.7" x2="350" y2="209.3"/>
	</g>
</g>
</svg>
