<?xml version="1.0" encoding="utf-8"?>
<!-- Generator: Adobe Illustrator 18.0.0, SVG Export Plug-In . SVG Version: 6.00 Build 0)  -->
<!DOCTYPE svg PUBLIC "-//W3C//DTD SVG 1.1//EN" "http://www.w3.org/Graphics/SVG/1.1/DTD/svg11.dtd">
<svg version="1.1" id="Layer_1" xmlns="http://www.w3.org/2000/svg" xmlns:xlink="http://www.w3.org/1999/xlink" x="0px" y="0px"
	 viewBox="452 259 57 43" enable-background="new 452 259 57 43" xml:space="preserve">
<g>
	<path fill="#E95F58" d="M466.5,276.5v11h-4c-2.2,0-4-1.8-4-4v-14c0-2.2,1.8-4,4-4h29c2.2,0,4,1.8,4,4v6h-28
		C466.4,275.5,466.5,275.4,466.5,276.5z"/>
	<path fill="#68ABE1" d="M458.5,268.5h36v7h-36V268.5z"/>
	<circle fill="#E95F58" cx="480" cy="285" r="4.5"/>
	<circle fill="#68ABE1" cx="487" cy="285" r="4.5"/>
	<path fill="#4E5252" d="M499.5,295.5h-31c-1.4,0-3-1.6-3-3v-5h-4c-1.4,0-3-1.6-3-3v-16c0-1.4,1.6-3,3-3h31c1.4,0,3,1.6,3,3v6h4
		c1.4,0,3,1.6,3,3v15C502.5,293.9,500.9,295.5,499.5,295.5z M459.5,284.5c0,0.9,1.1,2,2,2h4v-7h-3v-1h3v-1c0-0.9,0.6-2,2-2h-8V284.5
		z M492.5,266.5h-31c-0.9,0-2,1.1-2,2h35C494.5,267.6,493.4,266.5,492.5,266.5z M494.5,269.5h-35v5h35V269.5z M501.5,277.5
		c0-0.9-1.1-2-2-2h-31c-0.9,0-2,1.1-2,2v15c0,0.9,1.1,2,2,2h31c0.9,0,2-1.1,2-2V277.5z M494.5,284.5h2v1h-2V284.5z M470.5,284.5h2v1
		h-2V284.5z M483.5,272.5h-3v-1h3V272.5z M491.5,272.5h-7v-1h7V272.5z"/>
</g>
</svg>
