<?xml version="1.0" encoding="utf-8"?>
<!-- Generator: Adobe Illustrator 18.0.0, SVG Export Plug-In . SVG Version: 6.00 Build 0)  -->
<!DOCTYPE svg PUBLIC "-//W3C//DTD SVG 1.1//EN" "http://www.w3.org/Graphics/SVG/1.1/DTD/svg11.dtd">
<svg version="1.1" id="Layer_1" xmlns="http://www.w3.org/2000/svg" xmlns:xlink="http://www.w3.org/1999/xlink" x="0px" y="0px"
	 viewBox="0 0 841.9 595.3" enable-background="new 0 0 841.9 595.3" xml:space="preserve">
<g>
	<g>
		
			<path fill="#FFFFFF" stroke="#28D4C2" stroke-width="3.1485" stroke-linecap="round" stroke-linejoin="round" stroke-miterlimit="10" d="
			M620.4,183.8c0.9-17.3,15.8-30.6,33.1-29.7l3.4-65.1l-437-23.6l-3.6,65.1c0.7,0,1.3,0,2,0c17.3,0.9,30.6,15.8,29.7,33.1
			c-0.9,17.3-15.8,30.6-33.1,29.7c-0.7,0-1.3-0.2-2-0.2l-3.6,65.1l437,23.6l3.4-65.1C632.8,215.8,619.5,201.1,620.4,183.8z"/>
		<g>
			<g>
				
					<line fill="none" stroke="#7EE5DA" stroke-width="2.099" stroke-linecap="round" stroke-linejoin="round" x1="228.5" y1="241.3" x2="228.5" y2="241.3"/>
				
					<line fill="none" stroke="#7EE5DA" stroke-width="2.099" stroke-linecap="round" stroke-linejoin="round" stroke-dasharray="1.121797e-02,5.8866" x1="229.1" y1="230.7" x2="230" y2="214.9"/>
				
					<line fill="none" stroke="#7EE5DA" stroke-width="2.099" stroke-linecap="round" stroke-linejoin="round" x1="230.1" y1="209.5" x2="230.1" y2="209.5"/>
				
					<path fill="none" stroke="#7EE5DA" stroke-width="2.099" stroke-linecap="round" stroke-linejoin="round" stroke-dasharray="9.981873e-03,5.238" d="
					M238.9,206.1c15.3-7.7,26.3-23.2,27.2-41.5c1.1-20-9.9-37.8-26.6-46.6"/>
				
					<line fill="none" stroke="#7EE5DA" stroke-width="2.099" stroke-linecap="round" stroke-linejoin="round" x1="235.2" y1="116.2" x2="235.2" y2="116.2"/>
				
					<line fill="none" stroke="#7EE5DA" stroke-width="2.099" stroke-linecap="round" stroke-linejoin="round" stroke-dasharray="1.121797e-02,5.8866" x1="235.7" y1="105.6" x2="236.6" y2="89.7"/>
				
					<line fill="none" stroke="#7EE5DA" stroke-width="2.099" stroke-linecap="round" stroke-linejoin="round" x1="237" y1="84.3" x2="237" y2="84.3"/>
				
					<line fill="none" stroke="#7EE5DA" stroke-width="2.099" stroke-linecap="round" stroke-linejoin="round" stroke-dasharray="1.011714e-02,5.309" x1="246.5" y1="84.9" x2="633.3" y2="105.7"/>
				
					<line fill="none" stroke="#7EE5DA" stroke-width="2.099" stroke-linecap="round" stroke-linejoin="round" x1="638.2" y1="105.9" x2="638.2" y2="105.9"/>
				
					<line fill="none" stroke="#7EE5DA" stroke-width="2.099" stroke-linecap="round" stroke-linejoin="round" stroke-dasharray="1.147756e-02,6.0229" x1="637.5" y1="116.7" x2="636.6" y2="133.1"/>
				
					<line fill="none" stroke="#7EE5DA" stroke-width="2.099" stroke-linecap="round" stroke-linejoin="round" x1="636.4" y1="138.5" x2="636.4" y2="138.5"/>
				
					<path fill="none" stroke="#7EE5DA" stroke-width="2.099" stroke-linecap="round" stroke-linejoin="round" stroke-dasharray="9.634501e-03,5.0557" d="
					M628.1,142.1c-14.4,7.9-24.6,23-25.5,40.6c-1.1,19.2,9.2,36.7,24.8,45.7"/>
				
					<line fill="none" stroke="#7EE5DA" stroke-width="2.099" stroke-linecap="round" stroke-linejoin="round" x1="631.4" y1="230.4" x2="631.4" y2="230.4"/>
				
					<line fill="none" stroke="#7EE5DA" stroke-width="2.099" stroke-linecap="round" stroke-linejoin="round" stroke-dasharray="1.147756e-02,6.0229" x1="630.8" y1="241.2" x2="629.9" y2="257.5"/>
				
					<line fill="none" stroke="#7EE5DA" stroke-width="2.099" stroke-linecap="round" stroke-linejoin="round" x1="629.7" y1="262.9" x2="629.7" y2="262.9"/>
				
					<line fill="none" stroke="#7EE5DA" stroke-width="2.099" stroke-linecap="round" stroke-linejoin="round" stroke-dasharray="1.011714e-02,5.309" x1="620.2" y1="262.4" x2="233.2" y2="241.5"/>
			</g>
		</g>
		<g enable-background="new    ">
			<path fill="#28D4C2" d="M305.3,162.9l-1.2,4.7l5.2,0.3l-0.2,4.2l-6-0.3l-2,8.2l-4.5-0.2l2-8.2l-3.9-0.2l-2,8.2l-4.4-0.2l2-8.2
				l-4.8-0.3l0.2-4.2l5.6,0.3l1.2-4.7l-5.1-0.3l0.2-4.3l5.9,0.3l2-8.2l4.5,0.2l-2,8.2l4,0.2l2-8.2l4.4,0.2l-2,8.2l4.9,0.3l-0.2,4.3
				L305.3,162.9z M295.7,167.2l4,0.2l1.2-4.7l-4-0.2L295.7,167.2z"/>
			<path fill="#28D4C2" d="M332.7,173.4c-0.1,2.7-1.2,4.8-3.2,6.2c-2,1.4-4.7,2.1-8.2,1.9c-3.2-0.2-6-0.9-8.3-2.2l0.3-5.9
				c2,1,3.6,1.7,5,2.2c1.4,0.4,2.6,0.7,3.8,0.8c1.4,0.1,2.5-0.1,3.2-0.6c0.8-0.5,1.2-1.3,1.2-2.3c0-0.6-0.1-1.1-0.4-1.6
				c-0.3-0.5-0.8-0.9-1.4-1.4c-0.6-0.5-1.9-1.2-3.7-2.2c-1.8-1-3.1-1.8-4-2.7c-0.9-0.8-1.5-1.8-2-2.9c-0.5-1.1-0.7-2.3-0.6-3.7
				c0.1-2.6,1.1-4.7,3-6.1c1.9-1.4,4.4-2,7.5-1.9c1.5,0.1,3,0.3,4.4,0.8c1.4,0.4,2.8,1,4.3,1.8l-2.3,4.8c-1.6-0.7-2.8-1.3-3.9-1.6
				c-1-0.3-2-0.5-3-0.6c-1.2-0.1-2.1,0.2-2.8,0.7c-0.7,0.5-1,1.2-1.1,2.1c0,0.6,0.1,1,0.3,1.5c0.2,0.4,0.6,0.9,1.2,1.3
				c0.5,0.4,1.8,1.2,3.9,2.3c2.7,1.5,4.5,2.9,5.5,4.3C332.4,169.7,332.8,171.4,332.7,173.4z"/>
			<path fill="#28D4C2" d="M365.4,168.4c-0.3,4.9-1.7,8.6-4.3,11.2s-6.2,3.6-10.7,3.4c-4.6-0.2-8-1.8-10.3-4.5
				c-2.3-2.8-3.3-6.6-3-11.6c0.3-5,1.7-8.7,4.3-11.1c2.6-2.5,6.2-3.6,10.7-3.4s8,1.8,10.3,4.5C364.7,159.7,365.7,163.5,365.4,168.4z
				 M343.7,167.3c-0.2,3.3,0.3,5.9,1.5,7.6c1.2,1.8,3,2.7,5.5,2.8c5,0.3,7.7-2.9,8.1-9.6c0.4-6.7-2-10.2-7-10.5
				c-2.5-0.1-4.4,0.6-5.8,2.2C344.7,161.5,343.9,163.9,343.7,167.3z"/>
			<path fill="#28D4C2" d="M396.3,169.9c-0.3,4.9-1.9,8.6-4.8,11c-2.9,2.5-7,3.5-12.3,3.3l-8.4-0.5l1.6-29.8l9.3,0.5
				c4.9,0.3,8.6,1.7,11.1,4.5C395.4,161.6,396.6,165.3,396.3,169.9z M389.8,169.7c0.3-6.4-2.3-9.7-8-10l-3.4-0.2l-1,19.4l2.7,0.1
				C386.2,179.3,389.4,176.2,389.8,169.7z"/>
			<path fill="#28D4C2" d="M419.9,186.3l-1.8-7.2l-10.8-0.6l-2.5,7l-6.8-0.4l12.1-29.3l7.7,0.4l8.9,30.4L419.9,186.3z M416.9,173.8
				c-1.6-6.5-2.6-10.2-2.8-11.1c-0.2-0.9-0.3-1.5-0.4-2c-0.5,1.7-2.1,5.9-4.5,12.7L416.9,173.8z"/>
			<path fill="#28D4C2" d="M444.4,162.7c-2.4-0.1-4.3,0.7-5.7,2.4c-1.4,1.7-2.2,4.2-2.4,7.4c-0.4,6.6,2,10.1,6.9,10.4
				c2.1,0.1,4.6-0.3,7.7-1.2l-0.3,5.3c-2.5,0.9-5.3,1.2-8.3,1.1c-4.3-0.2-7.6-1.7-9.7-4.5c-2.2-2.7-3.1-6.6-2.8-11.5
				c0.2-3.1,0.9-5.8,2.1-8c1.3-2.3,3-4,5.1-5.1c2.2-1.1,4.7-1.6,7.5-1.5c2.9,0.2,5.8,1,8.6,2.6l-2.3,5c-1.1-0.6-2.2-1.1-3.3-1.6
				C446.6,163,445.5,162.7,444.4,162.7z"/>
			<path fill="#28D4C2" d="M457,188.3l1.6-29.8l6.3,0.3l-1.6,29.8L457,188.3z"/>
			<path fill="#28D4C2" d="M477.7,178l-0.6,11.4l-6.3-0.3l1.6-29.8l8.7,0.5c4,0.2,7,1.1,8.9,2.7c1.9,1.6,2.7,3.9,2.5,6.9
				c-0.1,1.8-0.7,3.3-1.7,4.6c-1,1.3-2.5,2.3-4.3,3c4.1,6.9,6.8,11.4,8.1,13.4l-7-0.4l-6.5-11.8L477.7,178z M478,172.9l2,0.1
				c2,0.1,3.5-0.1,4.5-0.8c1-0.6,1.5-1.6,1.6-3.1c0.1-1.4-0.4-2.4-1.3-3.1c-0.9-0.6-2.4-1-4.5-1.1l-1.9-0.1L478,172.9z"/>
			<path fill="#28D4C2" d="M526.1,177.1c-0.2,3.5-1,6.4-2.3,8.7c-1.4,2.3-3.3,3.9-5.7,4.9l6.7,8.4l-8.1-0.4l-5.1-7l-0.5,0
				c-4.6-0.2-8-1.8-10.3-4.5c-2.3-2.8-3.3-6.6-3-11.6c0.3-5,1.7-8.7,4.3-11.1c2.6-2.5,6.2-3.6,10.7-3.4s8,1.8,10.3,4.5
				C525.4,168.3,526.4,172.2,526.1,177.1z M504.4,175.9c-0.2,3.3,0.3,5.9,1.5,7.6c1.2,1.8,3,2.7,5.5,2.8c5,0.3,7.7-2.9,8.1-9.6
				c0.4-6.7-2-10.2-7-10.5c-2.5-0.1-4.4,0.6-5.8,2.2C505.3,170.1,504.6,172.6,504.4,175.9z"/>
			<path fill="#28D4C2" d="M557.3,163.9l-1,19.3c-0.1,2.2-0.7,4.1-1.8,5.7c-1.1,1.6-2.6,2.8-4.5,3.6c-1.9,0.8-4.1,1.1-6.7,1
				c-3.8-0.2-6.7-1.3-8.8-3.4s-2.9-4.8-2.7-8.2l1-19.2l6.3,0.3l-1,18.2c-0.1,2.3,0.2,4,1.1,5.1c0.9,1.1,2.4,1.7,4.5,1.9
				c2.1,0.1,3.6-0.3,4.6-1.4c1-1,1.5-2.7,1.7-5l1-18.2L557.3,163.9z"/>
			<path fill="#28D4C2" d="M580.1,195l-17.1-0.9l1.6-29.8l17.1,0.9l-0.3,5.2l-10.8-0.6l-0.4,6.5l10.1,0.5l-0.3,5.2l-10.1-0.5
				l-0.4,7.7l10.8,0.6L580.1,195z"/>
		</g>
		
			<line fill="none" stroke="#28D4C2" stroke-width="2" stroke-linecap="round" stroke-linejoin="round" stroke-miterlimit="10" x1="358.7" y1="123.2" x2="518.8" y2="131.8"/>
		
			<line fill="none" stroke="#28D4C2" stroke-width="2" stroke-linecap="round" stroke-linejoin="round" stroke-miterlimit="10" x1="353.7" y1="215.6" x2="513.7" y2="224.3"/>
	</g>
	<g>
		<g>
			
				<path fill="#FFFFFF" stroke="#E95F58" stroke-width="3.1485" stroke-linecap="round" stroke-linejoin="round" stroke-miterlimit="10" d="
				M639.5,357.9c3.8-16.9,20.7-27.5,37.6-23.7l14.4-63.5l-426.9-96.6l-14.4,63.7c0.7,0.2,1.3,0.2,2,0.4
				c16.9,3.8,27.5,20.7,23.7,37.6s-20.7,27.5-37.6,23.7c-0.7-0.2-1.3-0.4-2-0.5l-14.4,63.7L648.8,459l14.4-63.5
				C646.3,391.5,635.7,374.8,639.5,357.9z"/>
			<g>
				<g>
					
						<line fill="none" stroke="#F29F9B" stroke-width="2.099" stroke-linecap="round" stroke-linejoin="round" x1="243.4" y1="349.1" x2="243.4" y2="349.1"/>
					
						<line fill="none" stroke="#F29F9B" stroke-width="2.099" stroke-linecap="round" stroke-linejoin="round" stroke-dasharray="1.121797e-02,5.8866" x1="245.8" y1="338.6" x2="249.2" y2="323.2"/>
					
						<line fill="none" stroke="#F29F9B" stroke-width="2.099" stroke-linecap="round" stroke-linejoin="round" x1="250.5" y1="318" x2="250.5" y2="318"/>
					
						<path fill="none" stroke="#F29F9B" stroke-width="2.099" stroke-linecap="round" stroke-linejoin="round" stroke-dasharray="9.981873e-03,5.238" d="
						M259.6,316c16.4-5,29.7-18.5,33.6-36.3c4.3-19.4-3.4-39-18.5-50.4"/>
					
						<line fill="none" stroke="#F29F9B" stroke-width="2.099" stroke-linecap="round" stroke-linejoin="round" x1="271" y1="226.8" x2="271" y2="226.8"/>
					
						<line fill="none" stroke="#F29F9B" stroke-width="2.099" stroke-linecap="round" stroke-linejoin="round" stroke-dasharray="1.121797e-02,5.8866" x1="273.3" y1="216.4" x2="276.9" y2="200.9"/>
					
						<line fill="none" stroke="#F29F9B" stroke-width="2.099" stroke-linecap="round" stroke-linejoin="round" x1="278" y1="195.7" x2="278" y2="195.7"/>
					
						<line fill="none" stroke="#F29F9B" stroke-width="2.099" stroke-linecap="round" stroke-linejoin="round" stroke-dasharray="1.011714e-02,5.309" x1="287.3" y1="197.8" x2="665.4" y2="283.1"/>
					
						<line fill="none" stroke="#F29F9B" stroke-width="2.099" stroke-linecap="round" stroke-linejoin="round" x1="670" y1="284.2" x2="670" y2="284.2"/>
					
						<line fill="none" stroke="#F29F9B" stroke-width="2.099" stroke-linecap="round" stroke-linejoin="round" stroke-dasharray="1.147756e-02,6.0229" x1="667.5" y1="294.8" x2="663.9" y2="310.6"/>
					
						<line fill="none" stroke="#F29F9B" stroke-width="2.099" stroke-linecap="round" stroke-linejoin="round" x1="662.8" y1="315.8" x2="662.8" y2="315.8"/>
					
						<path fill="none" stroke="#F29F9B" stroke-width="2.099" stroke-linecap="round" stroke-linejoin="round" stroke-dasharray="9.634501e-03,5.0557" d="
						M654,318.1c-15.6,5.4-28.1,18.5-32,35.8c-4.3,18.9,2.9,37.6,16.9,49.1"/>
					
						<line fill="none" stroke="#F29F9B" stroke-width="2.099" stroke-linecap="round" stroke-linejoin="round" x1="642.5" y1="405.7" x2="642.5" y2="405.7"/>
					
						<line fill="none" stroke="#F29F9B" stroke-width="2.099" stroke-linecap="round" stroke-linejoin="round" stroke-dasharray="1.147756e-02,6.0229" x1="640.2" y1="416.3" x2="636.6" y2="432.2"/>
					
						<line fill="none" stroke="#F29F9B" stroke-width="2.099" stroke-linecap="round" stroke-linejoin="round" x1="635.3" y1="437.4" x2="635.3" y2="437.4"/>
					
						<line fill="none" stroke="#F29F9B" stroke-width="2.099" stroke-linecap="round" stroke-linejoin="round" stroke-dasharray="1.011714e-02,5.309" x1="626" y1="435.4" x2="248.1" y2="350"/>
				</g>
			</g>
		</g>
		
			<ellipse transform="matrix(-0.1536 -0.9881 0.9881 -0.1536 275.4693 855.66)" fill="none" stroke="#E95F58" stroke-width="3.1485" stroke-linecap="round" stroke-linejoin="round" stroke-miterlimit="10" cx="504.2" cy="309.9" rx="18.9" ry="7"/>
		
			<path fill="none" stroke="#E95F58" stroke-width="3.1485" stroke-linecap="round" stroke-linejoin="round" stroke-miterlimit="10" d="
			M507.1,328.6L451.3,348c-16,2.5-31.1-8.5-33.6-24.5c-2.5-16,8.5-31.1,24.5-33.6l59,1.4"/>
		
			<line fill="none" stroke="#E95F58" stroke-width="3.1485" stroke-linecap="round" stroke-linejoin="round" stroke-miterlimit="10" x1="442.3" y1="289.7" x2="451.3" y2="347.8"/>
		
			<line fill="none" stroke="#E95F58" stroke-width="3.1485" stroke-linecap="round" stroke-linejoin="round" stroke-miterlimit="10" x1="452.8" y1="290.1" x2="461" y2="342.6"/>
		
			<line fill="none" stroke="#E95F58" stroke-width="3.1485" stroke-linecap="round" stroke-linejoin="round" stroke-miterlimit="10" x1="428.3" y1="341.5" x2="425.3" y2="355.2"/>
		
			<line fill="none" stroke="#E95F58" stroke-width="3.1485" stroke-linecap="round" stroke-linejoin="round" stroke-miterlimit="10" x1="447.9" y1="360.2" x2="450.3" y2="349.8"/>
		
			<rect x="404.8" y="357.6" transform="matrix(-0.9755 -0.2202 0.2202 -0.9755 781.1467 809.9136)" fill="#FFFFFF" stroke="#E95F58" stroke-width="3.1485" stroke-linecap="round" stroke-linejoin="round" stroke-miterlimit="10" width="61.9" height="7.7"/>
		<circle fill="#F29F9B" cx="427.6" cy="263.5" r="2.9"/>
		<circle fill="#F29F9B" cx="419" cy="257.5" r="2.9"/>
		<circle fill="#F29F9B" cx="408.5" cy="257.2" r="2.9"/>
		<circle fill="#F29F9B" cx="399.5" cy="262.6" r="2.9"/>
		<circle fill="#F29F9B" cx="394.9" cy="271.9" r="2.9"/>
		<circle fill="#F29F9B" cx="396.1" cy="282.4" r="2.9"/>
		<circle fill="#F29F9B" cx="402.8" cy="290.3" r="2.9"/>
		
			<path fill="#FFFFFF" stroke="#E95F58" stroke-width="3.1485" stroke-linecap="round" stroke-linejoin="round" stroke-miterlimit="10" d="
			M445.8,289.9c0,0-4.3-10.4-17.3-8.6c-12.9,1.8-16.2-7-16.2-7"/>
		
			<line fill="none" stroke="#F29F9B" stroke-width="2.099" stroke-linecap="round" stroke-linejoin="round" stroke-miterlimit="10" x1="526.3" y1="307" x2="563.9" y2="301.4"/>
		
			<line fill="none" stroke="#F29F9B" stroke-width="2.099" stroke-linecap="round" stroke-linejoin="round" stroke-miterlimit="10" x1="523.5" y1="296" x2="536" y2="286"/>
		
			<line fill="none" stroke="#F29F9B" stroke-width="2.099" stroke-linecap="round" stroke-linejoin="round" stroke-miterlimit="10" x1="526.2" y1="318.1" x2="543.4" y2="322.1"/>
	</g>
	<g>
		<g>
			
				<path fill="#FFFFFF" stroke="#10658C" stroke-width="3.1485" stroke-linecap="round" stroke-linejoin="round" stroke-miterlimit="10" d="
				M567.2,397.5c-1.3-17.3,11.9-32.4,29.1-33.6l-4.5-64.9l-436.7,30.8l4.5,65.1c0.7,0,1.3-0.2,2-0.2c17.3-1.3,32.4,11.9,33.6,29.1
				c1.3,17.3-11.9,32.4-29.1,33.6c-0.7,0-1.3,0-2,0l4.5,65.1l436.7-30.8l-4.5-64.9C583.5,427.8,568.4,414.7,567.2,397.5z"/>
			<g>
				<g>
					
						<line fill="none" stroke="#59B5E1" stroke-width="2.099" stroke-linecap="round" stroke-linejoin="round" x1="185.4" y1="503" x2="185.4" y2="503"/>
					
						<line fill="none" stroke="#59B5E1" stroke-width="2.099" stroke-linecap="round" stroke-linejoin="round" stroke-dasharray="1.121797e-02,5.8866" x1="184.6" y1="492.6" x2="183.6" y2="476.6"/>
					
						<line fill="none" stroke="#59B5E1" stroke-width="2.099" stroke-linecap="round" stroke-linejoin="round" x1="183.2" y1="471.4" x2="183.2" y2="471.4"/>
					
						<path fill="none" stroke="#59B5E1" stroke-width="2.099" stroke-linecap="round" stroke-linejoin="round" stroke-dasharray="9.981873e-03,5.238" d="
						M191.5,466.9c14.2-9.5,23-26.3,21.8-44.6c-1.4-20-14.6-36.3-32.2-42.8"/>
					
						<line fill="none" stroke="#59B5E1" stroke-width="2.099" stroke-linecap="round" stroke-linejoin="round" x1="176.5" y1="378" x2="176.5" y2="378"/>
					
						<line fill="none" stroke="#59B5E1" stroke-width="2.099" stroke-linecap="round" stroke-linejoin="round" stroke-dasharray="1.121797e-02,5.8866" x1="175.8" y1="367.4" x2="174.7" y2="351.6"/>
					
						<line fill="none" stroke="#59B5E1" stroke-width="2.099" stroke-linecap="round" stroke-linejoin="round" x1="174.4" y1="346.4" x2="174.4" y2="346.4"/>
					
						<line fill="none" stroke="#59B5E1" stroke-width="2.099" stroke-linecap="round" stroke-linejoin="round" stroke-dasharray="1.011714e-02,5.309" x1="183.9" y1="345.7" x2="570.4" y2="318.5"/>
					
						<line fill="none" stroke="#59B5E1" stroke-width="2.099" stroke-linecap="round" stroke-linejoin="round" x1="575.1" y1="318.1" x2="575.1" y2="318.1"/>
					
						<line fill="none" stroke="#59B5E1" stroke-width="2.099" stroke-linecap="round" stroke-linejoin="round" stroke-dasharray="1.147756e-02,6.0229" x1="575.8" y1="328.9" x2="577" y2="345.1"/>
					
						<line fill="none" stroke="#59B5E1" stroke-width="2.099" stroke-linecap="round" stroke-linejoin="round" x1="577.4" y1="350.5" x2="577.4" y2="350.5"/>
					
						<path fill="none" stroke="#59B5E1" stroke-width="2.099" stroke-linecap="round" stroke-linejoin="round" stroke-dasharray="9.634501e-03,5.0557" d="
						M569.7,355.2c-13.3,9.7-21.6,25.9-20.3,43.5c1.4,19.2,13.7,35.2,30.4,42.1"/>
					
						<line fill="none" stroke="#59B5E1" stroke-width="2.099" stroke-linecap="round" stroke-linejoin="round" x1="583.9" y1="442.4" x2="583.9" y2="442.4"/>
					
						<line fill="none" stroke="#59B5E1" stroke-width="2.099" stroke-linecap="round" stroke-linejoin="round" stroke-dasharray="1.147756e-02,6.0229" x1="584.6" y1="453.2" x2="585.7" y2="469.4"/>
					
						<line fill="none" stroke="#59B5E1" stroke-width="2.099" stroke-linecap="round" stroke-linejoin="round" x1="586.2" y1="475" x2="586.2" y2="475"/>
					
						<line fill="none" stroke="#59B5E1" stroke-width="2.099" stroke-linecap="round" stroke-linejoin="round" stroke-dasharray="1.011714e-02,5.309" x1="576.7" y1="475.5" x2="190.2" y2="502.8"/>
				</g>
			</g>
			<g>
				
					<path fill="none" stroke="#10658C" stroke-width="2.7437" stroke-linecap="round" stroke-linejoin="round" stroke-miterlimit="10" d="
					M336.6,423.9c-12.2,0.9-21.4,11.5-20.5,23.7l1.3,18.7l44.2-3.1l-1.3-18.7C359.4,432.3,348.8,423,336.6,423.9z"/>
				
					<path fill="none" stroke="#10658C" stroke-width="2.7437" stroke-linecap="round" stroke-linejoin="round" stroke-miterlimit="10" d="
					M381,420.8c-12.2,0.9-21.4,11.5-20.5,23.7l1.3,18.7l44.2-3.1l-1.3-18.7C403.9,429.1,393.2,419.9,381,420.8z"/>
				
					<path fill="none" stroke="#10658C" stroke-width="2.7437" stroke-linecap="round" stroke-linejoin="round" stroke-miterlimit="10" d="
					M425.3,417.8c-12.2,0.9-21.4,11.5-20.5,23.7l1.3,18.7l44.2-3.1l-1.3-18.7C448.1,426,437.5,416.9,425.3,417.8z"/>
				
					<path fill="none" stroke="#10658C" stroke-width="2.7437" stroke-linecap="round" stroke-linejoin="round" stroke-miterlimit="10" d="
					M430.3,417.8c0,0-50.7-16.2-52.2-34.9c1.3,18.7-46.6,41.9-46.6,41.9"/>
				
					<path fill="none" stroke="#10658C" stroke-width="2.7437" stroke-linecap="round" stroke-linejoin="round" stroke-miterlimit="10" d="
					M421.5,362c0,0-6.3,6.5-20.3-0.7c-14-7.2-24.1,1.6-24.1,1.6l0.9,12.8c0,0,8.5-11.7,23.9-8.8C417.2,370.1,421.5,362,421.5,362"/>
				
					<line fill="none" stroke="#10658C" stroke-width="2.7437" stroke-linecap="round" stroke-linejoin="round" stroke-miterlimit="10" x1="378.3" y1="382.9" x2="380.8" y2="418.7"/>
			</g>
			
				<path fill="none" stroke="#59B5E1" stroke-width="2.7437" stroke-linecap="round" stroke-linejoin="round" stroke-miterlimit="10" d="
				M262.1,399.4l-5.8-6.5c-2.2-2.3-0.5-6.1,2.7-6.5l8.6-0.5c1.3,0,2.3-0.7,3.1-1.8l4.5-7.6c1.6-2.7,5.8-2.5,6.8,0.5l3.2,8.1
				c0.5,1.3,1.4,2,2.7,2.3l8.5,2c3.1,0.7,4.1,4.7,1.6,6.7l-6.7,5.6c-0.9,0.9-1.4,2-1.4,3.2l0.9,8.6c0.4,3.2-3.2,5.4-5.9,3.6
				l-7.4-4.7c-1.1-0.7-2.3-0.7-3.6-0.2l-7.9,3.4c-2.9,1.3-6.1-1.4-5.2-4.5l2.2-8.5C263.2,401.8,263,400.3,262.1,399.4z"/>
		</g>
		<g>
			<g>
				
					<line fill="none" stroke="#10658C" stroke-width="2.2426" stroke-linecap="round" stroke-linejoin="round" stroke-miterlimit="10" x1="242" y1="466.5" x2="251.9" y2="475"/>
				
					<line fill="none" stroke="#10658C" stroke-width="2.2426" stroke-linecap="round" stroke-linejoin="round" stroke-miterlimit="10" x1="251.2" y1="465.8" x2="242.7" y2="475.7"/>
			</g>
		</g>
		<g>
			<g>
				
					<line fill="none" stroke="#10658C" stroke-width="2.2426" stroke-linecap="round" stroke-linejoin="round" stroke-miterlimit="10" x1="455.5" y1="379.5" x2="465.4" y2="387.9"/>
				
					<line fill="none" stroke="#10658C" stroke-width="2.2426" stroke-linecap="round" stroke-linejoin="round" stroke-miterlimit="10" x1="464.6" y1="378.9" x2="456.2" y2="388.6"/>
			</g>
		</g>
	</g>
	
		<path fill="none" stroke="#59B5E1" stroke-width="2.7437" stroke-linecap="round" stroke-linejoin="round" stroke-miterlimit="10" d="
		M506.2,432.9l5.2,2.3c1.6,0.7,1.6,2.9,0.2,3.8l-4.9,3.1c-0.4,0.2-0.5,0.5-0.7,0.9l-2.3,5.2c-0.7,1.6-2.9,1.6-3.8,0.2l-3.1-4.9
		c-0.2-0.4-0.5-0.5-0.9-0.7l-5.2-2.3c-1.6-0.7-1.6-2.9-0.2-3.8l4.9-3.1c0.4-0.2,0.5-0.5,0.7-0.9l2.3-5.2c0.7-1.6,2.9-1.6,3.8-0.2
		l3.1,4.9C505.5,432.5,505.8,432.7,506.2,432.9z"/>
	<g>
		<g>
			
				<polyline fill="none" stroke="#10658C" stroke-width="2.0133" stroke-linecap="round" stroke-linejoin="round" stroke-miterlimit="10" points="
				504.4,383.6 488.2,351.1 513.7,338.3 529.9,370.8 			"/>
			
				<circle fill="none" stroke="#10658C" stroke-width="2.0133" stroke-linecap="round" stroke-linejoin="round" stroke-miterlimit="10" cx="496.8" cy="387.2" r="8.3"/>
			
				<circle fill="none" stroke="#10658C" stroke-width="2.0133" stroke-linecap="round" stroke-linejoin="round" stroke-miterlimit="10" cx="522.6" cy="374.4" r="8.3"/>
			
				<line fill="none" stroke="#10658C" stroke-width="2.0133" stroke-linecap="round" stroke-linejoin="round" stroke-miterlimit="10" x1="492.9" y1="360.6" x2="518.6" y2="347.8"/>
		</g>
	</g>
</g>
</svg>
